<?xml version="1.0" standalone="no"?>
<!DOCTYPE svg PUBLIC "-//W3C//DTD SVG 20010904//EN"
 "http://www.w3.org/TR/2001/REC-SVG-20010904/DTD/svg10.dtd">
<svg version="1.0" xmlns="http://www.w3.org/2000/svg"
 width="117.000000pt" height="77.000000pt" viewBox="0 0 117.000000 77.000000"
 preserveAspectRatio="xMidYMid meet">

<g transform="translate(0.000000,77.000000) scale(0.100000,-0.100000)"
fill="#000000" stroke="none">
<path d="M34 724 c-22 -51 -30 -190 -14 -239 28 -86 120 -144 236 -149 52 -3
69 -8 96 -31 49 -42 142 -82 238 -102 65 -14 129 -18 273 -18 103 0 187 0 187
0 0 -1 -22 -18 -50 -39 -27 -21 -69 -61 -92 -89 l-43 -52 66 53 c37 28 105 76
152 106 l86 53 -87 23 c-47 13 -115 38 -149 56 -35 18 -63 31 -63 28 0 -10
124 -83 153 -90 l32 -8 -40 -7 c-67 -13 -344 -9 -425 5 -98 18 -185 51 -224
86 l-31 29 30 10 c58 22 80 36 131 86 161 160 54 301 -114 150 -66 -60 -97
-122 -88 -181 l6 -44 -64 0 c-87 0 -142 30 -175 95 -22 41 -25 61 -25 134 1
47 6 104 12 125 15 53 6 59 -14 10z m512 -126 c-9 -45 -62 -123 -110 -162 -37
-31 -97 -66 -111 -66 -12 0 -4 64 14 98 34 67 149 160 200 162 10 0 12 -8 7
-32z"/>
</g>
</svg>
