<svg width="322" height="157" viewBox="0 0 322 157" fill="none" xmlns="http://www.w3.org/2000/svg">
<path d="M138.015 2.27148C147.253 1.14018 158.927 0.645233 170.866 1.2793C182.037 1.87305 191.257 3.03364 199.589 4.87207L201.244 5.24805L202.839 5.62891C210.602 7.50818 215.352 9.10169 223.168 12.1943C242.857 19.9818 262.863 26.915 283.857 26.915H291.383C295.892 26.9153 299.553 30.5544 299.553 35.0547C299.553 36.8085 300.31 38.4876 301.629 39.6484L308.214 45.4463L308.216 45.4473C310.866 47.7892 313.043 50.6129 314.626 53.7646L316.181 56.8613C318.256 60.9943 319.694 65.4304 320.424 69.999L320.532 70.709C321.046 74.2608 321.14 77.8703 320.798 81.4541L320.551 84.0957C320.074 89.1838 318.685 94.1701 316.476 98.7725L316.475 98.7734C314.995 101.841 313.162 104.728 311.023 107.361L311.021 107.364L308.971 109.869L308.97 109.868C308.1 110.936 307.112 111.888 306.005 112.718L306.002 112.72L302.813 115.096C301.067 116.395 300.048 118.435 300.048 120.604C300.048 125.52 296.04 129.493 291.126 129.493H261.954C255.011 129.493 248.225 131.526 242.257 135.099C239.508 136.748 236.581 138.447 234.157 139.717L233.151 140.233C229.828 141.903 225.466 143.764 221.951 145.202C220.191 145.922 218.636 146.539 217.521 146.976C216.964 147.194 216.516 147.367 216.208 147.486C216.054 147.546 215.934 147.591 215.854 147.622C215.813 147.637 215.782 147.649 215.761 147.657C215.751 147.661 215.743 147.665 215.737 147.667C215.735 147.668 215.733 147.668 215.731 147.669L215.729 147.67L215.683 147.688L215.635 147.7L215.633 147.701C215.632 147.702 215.629 147.702 215.627 147.702C215.621 147.704 215.612 147.706 215.602 147.709C215.579 147.715 215.546 147.725 215.503 147.736C215.417 147.76 215.289 147.794 215.126 147.838C214.798 147.926 214.323 148.054 213.735 148.211C212.56 148.526 210.932 148.959 209.124 149.433C205.964 150.261 202.24 151.217 199.416 151.882L198.265 152.147C192.511 153.445 189.233 154.296 183.33 155.121H183.329C177.377 155.952 161.521 156.343 150.449 155.621C144.892 155.259 138.922 154.515 134.35 153.864C132.062 153.538 130.119 153.236 128.749 153.014C128.064 152.903 127.521 152.812 127.149 152.749C126.964 152.718 126.82 152.693 126.724 152.676C126.676 152.667 126.638 152.662 126.613 152.657C126.601 152.655 126.591 152.653 126.585 152.652C126.582 152.652 126.58 152.651 126.578 152.65H126.575L126.53 152.643L126.485 152.63L115.751 149.701H115.75C106.028 147.04 96.615 143.366 87.6709 138.749L87.6455 138.735C76.0995 132.349 63.1158 129 49.9072 129H30.9043C26.4151 129 22.7657 125.371 22.7656 120.891C22.7656 118.887 21.77 116.99 20.1309 115.778L20.1289 115.777C18.5055 114.572 16.4461 112.989 14.5146 111.339C12.5976 109.701 10.7524 107.952 9.59863 106.415C7.83923 104.082 6.1923 100.792 5 98.1348C4.39947 96.7966 3.90603 95.6001 3.5625 94.7383C3.39078 94.3075 3.25591 93.9598 3.16406 93.7188C3.11812 93.5982 3.08353 93.5036 3.05957 93.4395C3.04761 93.4075 3.03748 93.383 3.03125 93.3662C3.02816 93.3579 3.02606 93.3511 3.02441 93.3467C3.02365 93.3446 3.0229 93.343 3.02246 93.3418V93.3398H3.02148L2.99805 93.2754L2.9834 93.208V93.207C2.98323 93.2063 2.98268 93.2053 2.98242 93.2041C2.98186 93.2015 2.98153 93.1973 2.98047 93.1924C2.97828 93.1823 2.97484 93.1676 2.9707 93.1484C2.96234 93.1097 2.95024 93.0528 2.93457 92.9795C2.90318 92.8326 2.85805 92.6192 2.80273 92.3535C2.69213 91.8222 2.54021 91.0794 2.37695 90.2324C2.05176 88.5453 1.67416 86.4183 1.48145 84.7266L1.48242 84.7256C1.28479 83.0331 1.07199 79.9328 1.01465 76.7559C0.957751 73.6024 1.05078 70.2591 1.49707 68.1396C1.93066 66.0582 2.82192 63.5287 3.58789 61.5537C3.97364 60.5591 4.33274 59.6909 4.5957 59.0713C4.72722 58.7614 4.83518 58.5131 4.91016 58.3418C4.94754 58.2564 4.97697 58.1898 4.99707 58.1445C5.007 58.1222 5.01522 58.1046 5.02051 58.0928C5.02299 58.0872 5.02498 58.0822 5.02637 58.0791C5.02703 58.0777 5.02796 58.076 5.02832 58.0752V58.0732H5.0293L5.04199 58.0439L5.05762 58.0146L7.04785 54.2578L7.04883 54.2559C8.72956 51.1013 10.8693 48.2206 13.4053 45.6953L14.8213 44.2852C15.4044 43.7045 16.0341 43.1795 16.71 42.7119L16.7109 42.7109L18.8398 41.2422L18.8418 41.2412C20.68 39.9777 21.7753 37.8991 21.7754 35.6758C21.7755 30.8409 25.7118 26.915 30.5684 26.915H35.6475C58.024 26.915 80.1357 22.1822 100.534 13.0303C109.841 8.85757 119.534 5.44444 129.616 3.60156C132.51 3.06691 135.442 2.59022 138.013 2.27148H138.015ZM170.508 6.25879C160.195 5.7104 150.091 6.0747 141.848 6.98828L140.225 7.17773C138.389 7.40137 136.348 7.72614 134.291 8.07812H134.288C124.423 9.79868 114.941 13.0754 105.82 17.0752L104.001 17.8848C86.227 25.883 67.179 30.6606 47.7432 31.9971L36.7803 32.7568H34.3145C30.6967 32.757 27.679 35.5014 27.3242 39.0781L27.2979 39.4268C27.213 40.9833 26.4105 42.4225 25.126 43.3086L22.5527 45.085L22.5439 45.0908C21.8916 45.5507 21.2814 46.0615 20.7148 46.6221L20.7109 46.626L19.4502 47.8887C17.1068 50.2268 15.1247 52.9068 13.5762 55.8242L13.5752 55.8262L11.7432 59.2979L11.7275 59.3271L11.7139 59.3574V59.3584C11.7134 59.3593 11.7125 59.361 11.7119 59.3623C11.7106 59.3652 11.7083 59.3699 11.7061 59.375C11.7012 59.386 11.6946 59.4024 11.6855 59.4229C11.667 59.4649 11.6389 59.5264 11.6045 59.6055C11.5354 59.7641 11.4365 59.9945 11.3154 60.2812C11.0732 60.855 10.7423 61.6592 10.3867 62.5801C9.68113 64.4077 8.85706 66.7508 8.4541 68.6807C8.04327 70.6485 7.96017 73.748 8.0127 76.6641C8.06569 79.6048 8.26077 82.4747 8.44043 84.0391L8.43945 84.04C8.61911 85.6088 8.96621 87.5777 9.26367 89.1387C9.41304 89.9225 9.55134 90.61 9.65234 91.1016C9.70285 91.3474 9.74381 91.5448 9.77246 91.6807C9.78675 91.7484 9.79803 91.8011 9.80566 91.8369C9.80945 91.8547 9.81246 91.8686 9.81445 91.8779C9.81542 91.8824 9.81589 91.8863 9.81641 91.8887C9.81667 91.8899 9.81725 91.891 9.81738 91.8916V91.8926L9.83203 91.9609L9.85645 92.0254L10.7949 91.6826L9.85645 92.0264V92.0283C9.85687 92.0295 9.8577 92.0313 9.8584 92.0332C9.85993 92.0374 9.86243 92.0432 9.86523 92.0508C9.87102 92.0664 9.87955 92.0894 9.89062 92.1191C9.91279 92.1786 9.94586 92.2654 9.98828 92.377C10.0732 92.6003 10.1967 92.9231 10.3555 93.3223C10.6728 94.1201 11.129 95.2273 11.6836 96.4658C12.7839 98.9231 14.3056 101.971 15.9336 104.133C17.093 105.68 19.0023 107.459 20.9355 109.087C22.8857 110.729 24.9238 112.269 26.3848 113.339L26.3867 113.341C27.3966 114.076 27.9677 115.275 27.8896 116.513V116.515C27.6942 119.699 30.2241 122.382 33.4033 122.382H55.7012C68.72 122.382 81.4239 126.432 92.0586 133.968L92.1152 134.008L92.1768 134.04C100.429 138.317 109.106 141.713 118.075 144.17L127.968 146.88L128.012 146.892L128.058 146.899L128.06 146.9C128.061 146.901 128.064 146.901 128.066 146.901C128.072 146.902 128.081 146.904 128.093 146.906C128.116 146.91 128.15 146.916 128.194 146.924C128.284 146.939 128.416 146.962 128.587 146.991C128.93 147.05 129.43 147.133 130.062 147.236C131.325 147.442 133.115 147.724 135.224 148.026C139.437 148.63 144.941 149.319 150.064 149.652C160.278 150.317 174.888 149.958 180.385 149.193L180.387 149.192C185.834 148.423 188.856 147.638 194.154 146.438C196.831 145.832 200.84 144.802 204.167 143.927C205.833 143.489 207.332 143.088 208.415 142.797C208.956 142.652 209.394 142.534 209.696 142.452C209.847 142.411 209.965 142.379 210.045 142.357C210.084 142.347 210.114 142.339 210.135 142.333C210.145 142.33 210.153 142.328 210.158 142.326C210.16 142.326 210.163 142.325 210.164 142.325L210.166 142.324L210.214 142.312L210.261 142.293H210.263C210.264 142.293 210.266 142.292 210.269 142.291C210.273 142.289 210.281 142.286 210.29 142.282C210.309 142.275 210.339 142.263 210.376 142.249C210.451 142.22 210.561 142.178 210.703 142.123C210.987 142.013 211.4 141.852 211.913 141.65C212.94 141.246 214.374 140.674 215.997 140.008C219.236 138.678 223.258 136.958 226.322 135.42L226.326 135.418C229.717 133.699 236.959 129.933 242.666 126.943L242.667 126.944C247.821 124.25 253.53 122.844 259.335 122.844H288.692C292.329 122.844 295.339 119.988 295.538 116.35V116.347C295.613 114.911 296.325 113.587 297.475 112.719L297.474 112.718L301.065 110.032L301.067 110.03C302.146 109.219 303.113 108.29 303.965 107.244L303.966 107.243L305.778 105.016C307.772 102.565 309.455 99.8892 310.819 97.0518L310.82 97.0508C312.864 92.7801 314.137 88.1704 314.589 83.4492V83.4482L314.818 81.0098L314.819 81.0078C315.148 77.4719 315.024 73.9169 314.471 70.415V70.4131L314.336 69.6191C313.673 65.9205 312.517 62.3374 310.896 58.9463L310.542 58.2227L309.001 55.1338L309 55.1328L308.733 54.6162C307.372 52.0522 305.565 49.7608 303.392 47.8379L296.626 41.8604H296.627C295.761 41.0882 295.297 39.97 295.367 38.8262C295.573 35.543 292.965 32.7568 289.673 32.7568H286.507L274.621 31.9561C255.237 30.6636 236.985 23.604 218.733 16.3623H218.734C211.055 13.3063 206.582 11.8357 198.52 9.92676H198.519C190.437 8.02348 181.504 6.84302 170.508 6.25879Z" fill="white"/>
<path d="M138.015 2.27148V3.27148H138.076L138.136 3.26407L138.015 2.27148ZM170.866 1.2793L170.919 0.280707L170.919 0.280704L170.866 1.2793ZM199.589 4.87207L199.81 3.89689L199.804 3.89556L199.589 4.87207ZM201.244 5.24805L201.476 4.27534L201.466 4.27289L201.244 5.24805ZM202.839 5.62891L203.074 4.65698L203.071 4.65626L202.839 5.62891ZM223.168 12.1943L222.8 13.1242L222.8 13.1242L223.168 12.1943ZM283.857 26.915L283.857 27.915H283.857V26.915ZM291.383 26.915L291.383 25.915H291.383V26.915ZM299.553 35.0547L298.553 35.0547L298.553 35.0548L299.553 35.0547ZM301.629 39.6484L302.29 38.8979L302.29 38.8978L301.629 39.6484ZM308.214 45.4463L307.553 46.1968L307.651 46.2826L307.767 46.3407L308.214 45.4463ZM308.216 45.4473L308.878 44.698L308.78 44.6113L308.663 44.5528L308.216 45.4473ZM314.626 53.7646L315.52 53.316L315.52 53.3159L314.626 53.7646ZM316.181 56.8613L315.287 57.31L315.287 57.31L316.181 56.8613ZM320.424 69.999L321.412 69.8481L321.411 69.8414L320.424 69.999ZM320.532 70.709L321.522 70.5659L321.521 70.5581L320.532 70.709ZM320.798 81.4541L319.802 81.3592L319.802 81.361L320.798 81.4541ZM320.551 84.0957L321.546 84.1889L321.546 84.1888L320.551 84.0957ZM316.476 98.7725L317.183 99.4796L317.303 99.359L317.377 99.2053L316.476 98.7725ZM316.475 98.7734L315.768 98.0663L315.648 98.1863L315.574 98.339L316.475 98.7734ZM311.023 107.361L311.731 108.068L311.767 108.032L311.8 107.992L311.023 107.361ZM311.021 107.364L310.313 106.657L310.278 106.692L310.247 106.731L311.021 107.364ZM308.971 109.869L308.264 110.576L309.045 111.358L309.745 110.502L308.971 109.869ZM308.97 109.868L309.677 109.161L308.894 108.378L308.194 109.237L308.97 109.868ZM306.005 112.718L306.56 113.55L306.583 113.534L306.605 113.518L306.005 112.718ZM306.002 112.72L305.447 111.888L305.425 111.902L305.404 111.918L306.002 112.72ZM302.813 115.096L303.411 115.898L303.411 115.898L302.813 115.096ZM300.048 120.604L299.048 120.604V120.604H300.048ZM291.126 129.493L291.126 130.493L291.126 130.493L291.126 129.493ZM242.257 135.099L241.743 134.241L241.742 134.241L242.257 135.099ZM234.157 139.717L234.614 140.606L234.621 140.603L234.157 139.717ZM233.151 140.233L233.6 141.127L233.608 141.123L233.151 140.233ZM221.951 145.202L222.33 146.128L222.33 146.128L221.951 145.202ZM217.521 146.976L217.886 147.907L217.886 147.907L217.521 146.976ZM216.208 147.486L216.568 148.419L216.568 148.419L216.208 147.486ZM215.854 147.622L215.496 146.688L215.496 146.688L215.854 147.622ZM215.761 147.657L215.404 146.723L215.404 146.723L215.761 147.657ZM215.737 147.667L216.093 148.601L216.1 148.599L215.737 147.667ZM215.731 147.669L215.403 146.724L215.342 146.746L215.284 146.775L215.731 147.669ZM215.729 147.67L216.081 148.606L216.13 148.588L216.177 148.564L215.729 147.67ZM215.683 147.688L215.939 148.654L215.987 148.641L216.034 148.624L215.683 147.688ZM215.635 147.7L215.378 146.734L215.279 146.76L215.188 146.806L215.635 147.7ZM215.633 147.701L215.894 148.666L215.991 148.64L216.08 148.596L215.633 147.701ZM215.627 147.702L215.39 146.731L215.378 146.734L215.365 146.737L215.627 147.702ZM215.602 147.709L215.34 146.744L215.34 146.744L215.602 147.709ZM215.503 147.736L215.764 148.702L215.764 148.702L215.503 147.736ZM215.126 147.838L214.866 146.872L214.866 146.872L215.126 147.838ZM213.735 148.211L213.994 149.177L213.994 149.177L213.735 148.211ZM209.124 149.433L209.378 150.4L209.378 150.4L209.124 149.433ZM199.416 151.882L199.641 152.856L199.645 152.855L199.416 151.882ZM198.265 152.147L198.485 153.123L198.489 153.122L198.265 152.147ZM183.33 155.121V156.121H183.4L183.469 156.111L183.33 155.121ZM183.329 155.121V154.121H183.26L183.191 154.131L183.329 155.121ZM150.449 155.621L150.514 154.623L150.514 154.623L150.449 155.621ZM134.35 153.864L134.209 154.854L134.209 154.854L134.35 153.864ZM128.749 153.014L128.589 154.001L128.589 154.001L128.749 153.014ZM127.149 152.749L126.982 153.735L126.982 153.735L127.149 152.749ZM126.724 152.676L126.894 151.69L126.894 151.69L126.724 152.676ZM126.613 152.657L126.441 153.642L126.442 153.642L126.613 152.657ZM126.585 152.652L126.412 153.637L126.413 153.637L126.585 152.652ZM126.578 152.65L126.804 151.676L126.692 151.65H126.578V152.65ZM126.575 152.65L126.404 153.636L126.489 153.65H126.575V152.65ZM126.53 152.643L126.258 153.605L126.308 153.619L126.359 153.628L126.53 152.643ZM126.485 152.63L126.757 151.668L126.749 151.665L126.485 152.63ZM115.751 149.701L116.014 148.736L115.885 148.701H115.751V149.701ZM115.75 149.701L115.486 150.666L115.616 150.701H115.75V149.701ZM87.6709 138.749L87.1968 139.629L87.2045 139.634L87.2122 139.638L87.6709 138.749ZM87.6455 138.735L87.1615 139.61L87.1714 139.616L87.6455 138.735ZM49.9072 129L49.9072 128H49.9072V129ZM30.9043 129L30.9043 130H30.9043V129ZM22.7656 120.891L23.7656 120.891L23.7656 120.891L22.7656 120.891ZM20.1309 115.778L20.7252 114.974L20.6555 114.923L20.5781 114.884L20.1309 115.778ZM20.1289 115.777L19.5329 116.58L19.6033 116.633L19.6817 116.672L20.1289 115.777ZM14.5146 111.339L13.8651 112.099L13.8651 112.099L14.5146 111.339ZM9.59863 106.415L10.3983 105.815L10.397 105.813L9.59863 106.415ZM5 98.1348L4.08766 98.5442L4.08766 98.5442L5 98.1348ZM3.5625 94.7383L2.63357 95.1085L2.63358 95.1086L3.5625 94.7383ZM3.16406 93.7188L2.22962 94.0749L2.22962 94.0749L3.16406 93.7188ZM3.05957 93.4395L3.99633 93.0895L3.99633 93.0895L3.05957 93.4395ZM3.03125 93.3662L2.09339 93.7132L2.09342 93.7133L3.03125 93.3662ZM3.02441 93.3467L3.96275 93.001L3.96255 93.0004L3.02441 93.3467ZM3.02246 93.3418H2.02246V93.5198L2.08388 93.6869L3.02246 93.3418ZM3.02246 93.3398H4.02246V92.3398H3.02246V93.3398ZM3.02148 93.3398L2.08169 93.6816L2.32106 94.3398H3.02148V93.3398ZM2.99805 93.2754L2.02087 93.4878L2.0352 93.5537L2.05825 93.6171L2.99805 93.2754ZM2.9834 93.208H1.9834V93.3154L2.00622 93.4204L2.9834 93.208ZM2.9834 93.207H3.9834V93.0836L3.9534 92.9639L2.9834 93.207ZM2.98242 93.2041L2.0043 93.4122L2.00534 93.417L2.98242 93.2041ZM2.98047 93.1924L3.95766 92.98L3.95764 92.9799L2.98047 93.1924ZM2.9707 93.1484L1.99328 93.3597L1.99328 93.3597L2.9707 93.1484ZM2.93457 92.9795L1.95666 93.1885L1.95666 93.1885L2.93457 92.9795ZM2.80273 92.3535L1.82372 92.5573L1.82372 92.5573L2.80273 92.3535ZM2.37695 90.2324L1.39503 90.4217L1.39503 90.4217L2.37695 90.2324ZM1.48145 84.7266L0.774339 84.0195L0.433281 84.3605L0.487871 84.8397L1.48145 84.7266ZM1.48242 84.7256L2.18953 85.4327L2.53181 85.0904L2.47567 84.6096L1.48242 84.7256ZM1.01465 76.7559L0.0148112 76.7739L0.0148113 76.7739L1.01465 76.7559ZM1.49707 68.1396L2.47561 68.3457L2.47606 68.3436L1.49707 68.1396ZM3.58789 61.5537L2.65556 61.1921L2.65556 61.1921L3.58789 61.5537ZM4.5957 59.0713L3.67518 58.6806L3.67518 58.6806L4.5957 59.0713ZM4.91016 58.3418L3.9941 57.9407L3.9941 57.9408L4.91016 58.3418ZM4.99707 58.1445L4.08303 57.7389L4.08297 57.739L4.99707 58.1445ZM5.02051 58.0928L5.93369 58.5003L5.93418 58.4992L5.02051 58.0928ZM5.02637 58.0791L4.11919 57.6581L4.11363 57.6706L5.02637 58.0791ZM5.02832 58.0752L5.94083 58.4843L6.02832 58.2891V58.0752H5.02832ZM5.02832 58.0732V57.0732H4.02832V58.0732H5.02832ZM5.0293 58.0732V59.0732H5.68582L5.94685 58.4708L5.0293 58.0732ZM5.04199 58.0439L4.15964 57.5734L4.14056 57.6091L4.12444 57.6463L5.04199 58.0439ZM5.05762 58.0146L5.93997 58.4852L5.94128 58.4828L5.05762 58.0146ZM7.04785 54.2578L7.93151 54.7259L7.93702 54.7155L7.94228 54.705L7.04785 54.2578ZM7.04883 54.2559L6.16628 53.7856L6.16019 53.7971L6.1544 53.8086L7.04883 54.2559ZM13.4053 45.6953L14.1109 46.4039L14.1109 46.4039L13.4053 45.6953ZM14.8213 44.2852L14.1157 43.5765L14.1156 43.5766L14.8213 44.2852ZM16.71 42.7119L17.2789 43.5343L17.3532 43.4829L17.4171 43.419L16.71 42.7119ZM16.7109 42.7109L16.1431 41.8878L16.0682 41.9395L16.0038 42.0038L16.7109 42.7109ZM18.8398 41.2422L18.3926 40.3478L18.3298 40.3792L18.272 40.4191L18.8398 41.2422ZM18.8418 41.2412L19.289 42.1356L19.3511 42.1046L19.4082 42.0653L18.8418 41.2412ZM21.7754 35.6758L22.7754 35.6758L22.7754 35.6758L21.7754 35.6758ZM35.6475 26.915L35.6475 27.915L35.6475 27.915L35.6475 26.915ZM100.534 13.0303L100.125 12.1178L100.125 12.1179L100.534 13.0303ZM129.616 3.60156L129.796 4.58527L129.798 4.58492L129.616 3.60156ZM138.013 2.27148V1.27148H137.951L137.89 1.27908L138.013 2.27148ZM170.508 6.25879L170.455 7.25738L170.455 7.25738L170.508 6.25879ZM141.848 6.98828L141.738 5.99435L141.732 5.99502L141.848 6.98828ZM140.225 7.17773L140.109 6.18447L140.104 6.18507L140.225 7.17773ZM134.291 8.07812V9.07812H134.376L134.46 9.0638L134.291 8.07812ZM134.288 8.07812V7.07812H134.202L134.116 7.093L134.288 8.07812ZM105.82 17.0752L105.419 16.1594L105.414 16.1616L105.82 17.0752ZM104.001 17.8848L103.594 16.9711L103.591 16.9728L104.001 17.8848ZM47.7432 31.9971L47.6746 30.9994L47.674 30.9995L47.7432 31.9971ZM36.7803 32.7568V33.7568H36.8149L36.8494 33.7544L36.7803 32.7568ZM34.3145 32.7568L34.3145 31.7568L34.3144 31.7568L34.3145 32.7568ZM27.3242 39.0781L26.3291 38.9794L26.3279 38.9911L26.3271 39.0027L27.3242 39.0781ZM27.2979 39.4268L26.3007 39.3513L26.2999 39.3618L26.2993 39.3723L27.2979 39.4268ZM25.126 43.3086L24.5582 42.4854L24.5579 42.4856L25.126 43.3086ZM22.5527 45.085L23.1074 45.917L23.1142 45.9125L23.1208 45.9079L22.5527 45.085ZM22.5439 45.0908L21.9892 44.2588L21.9784 44.266L21.9678 44.2735L22.5439 45.0908ZM20.7148 46.6221L20.0115 45.9112L20.0077 45.915L20.7148 46.6221ZM20.7109 46.626L20.0038 45.9189L20.0033 45.9194L20.7109 46.626ZM19.4502 47.8887L20.1565 48.5966L20.1578 48.5952L19.4502 47.8887ZM13.5762 55.8242L12.6929 55.3554L12.6872 55.3661L12.6817 55.377L13.5762 55.8242ZM13.5752 55.8262L14.4596 56.2929L14.4647 56.2832L14.4696 56.2734L13.5752 55.8262ZM11.7432 59.2979L12.6255 59.7684L12.6276 59.7646L11.7432 59.2979ZM11.7275 59.3271L10.8452 58.8566L10.8297 58.8856L10.8162 58.9156L11.7275 59.3271ZM11.7139 59.3574L10.8025 58.9458L10.7139 59.1421V59.3574H11.7139ZM11.7139 59.3584L12.6131 59.796L12.7139 59.5888V59.3584H11.7139ZM11.7119 59.3623L12.6241 59.7722L12.6255 59.7689L11.7119 59.3623ZM11.7061 59.375L10.792 58.9694L10.7917 58.9702L11.7061 59.375ZM11.6855 59.4229L12.6005 59.8265L12.6005 59.8264L11.6855 59.4229ZM11.6045 59.6055L10.6876 59.2063L10.6876 59.2063L11.6045 59.6055ZM11.3154 60.2812L10.3942 59.8923L10.3942 59.8923L11.3154 60.2812ZM10.3867 62.5801L9.45383 62.2199L9.45383 62.2199L10.3867 62.5801ZM8.4541 68.6807L7.47521 68.4763L7.47521 68.4763L8.4541 68.6807ZM8.0127 76.6641L7.01286 76.6821L7.01286 76.6821L8.0127 76.6641ZM8.44043 84.0391L9.14754 84.7462L9.489 84.4047L9.4339 83.925L8.44043 84.0391ZM8.43945 84.04L7.73235 83.3329L7.39103 83.6743L7.44595 84.1538L8.43945 84.04ZM9.26367 89.1387L8.28135 89.3259L8.28135 89.3259L9.26367 89.1387ZM9.65234 91.1016L8.67281 91.3028L8.67281 91.3028L9.65234 91.1016ZM9.77246 91.6807L8.79398 91.887L8.79398 91.887L9.77246 91.6807ZM9.80566 91.8369L8.82765 92.0454L8.82765 92.0454L9.80566 91.8369ZM9.81445 91.8779L10.7924 91.6693L10.7923 91.6684L9.81445 91.8779ZM9.81641 91.8887L8.83864 92.0987L8.84125 92.1102L9.81641 91.8887ZM9.81738 91.8916H10.8174V91.7853L10.795 91.6813L9.81738 91.8916ZM9.81738 91.8926H8.81738V91.9985L8.83958 92.1021L9.81738 91.8926ZM9.83203 91.9609L8.85423 92.1705L8.87008 92.2444L8.89687 92.3152L9.83203 91.9609ZM9.85645 92.0254L8.92129 92.3796L9.27132 93.3037L10.1995 92.9647L9.85645 92.0254ZM10.7949 91.6826L11.1389 92.6216L10.4518 90.7433L10.7949 91.6826ZM9.85645 92.0264L9.51251 91.0874L8.85645 91.3277V92.0264H9.85645ZM9.85645 92.0283H8.85645V92.207L8.9183 92.3746L9.85645 92.0283ZM9.8584 92.0332L8.9198 92.3782L8.91993 92.3786L9.8584 92.0332ZM9.86523 92.0508L8.92714 92.3972L8.92714 92.3972L9.86523 92.0508ZM9.89062 92.1191L8.9536 92.4684L8.9536 92.4684L9.89062 92.1191ZM9.98828 92.377L9.05356 92.7323L9.05356 92.7323L9.98828 92.377ZM10.3555 93.3223L9.42625 93.6918L9.42625 93.6918L10.3555 93.3223ZM11.6836 96.4658L10.7709 96.8745L10.7709 96.8745L11.6836 96.4658ZM15.9336 104.133L16.7338 103.533L16.7324 103.531L15.9336 104.133ZM20.9355 109.087L20.2915 109.852L20.2915 109.852L20.9355 109.087ZM26.3848 113.339L27.0919 112.632L27.0376 112.578L26.9757 112.532L26.3848 113.339ZM26.3867 113.341L25.6796 114.048L25.7349 114.103L25.7981 114.149L26.3867 113.341ZM27.8896 116.513L26.8916 116.45L26.8896 116.481V116.513H27.8896ZM27.8896 116.515L28.8878 116.576L28.8896 116.545V116.515H27.8896ZM33.4033 122.382L33.4033 123.382H33.4033V122.382ZM55.7012 122.382L55.7012 121.382H55.7012V122.382ZM92.0586 133.968L91.4804 134.784L91.4814 134.784L92.0586 133.968ZM92.1152 134.008L91.538 134.824L91.5923 134.863L91.6512 134.894L92.1152 134.008ZM92.1768 134.04L91.7127 134.926L91.7167 134.928L92.1768 134.04ZM118.075 144.17L118.339 143.205L118.339 143.205L118.075 144.17ZM127.968 146.88L127.704 147.844L127.71 147.846L127.968 146.88ZM128.012 146.892L127.754 147.858L127.799 147.87L127.844 147.877L128.012 146.892ZM128.058 146.899L128.505 146.005L128.372 145.939L128.225 145.914L128.058 146.899ZM128.06 146.9L127.612 147.795L127.742 147.86L127.886 147.885L128.06 146.9ZM128.066 146.901L128.24 145.917L128.235 145.916L128.066 146.901ZM128.093 146.906L127.919 147.891L127.92 147.891L128.093 146.906ZM128.194 146.924L128.366 145.939L128.366 145.939L128.194 146.924ZM128.587 146.991L128.419 147.977L128.419 147.977L128.587 146.991ZM130.062 147.236L129.901 148.223L129.901 148.223L130.062 147.236ZM135.224 148.026L135.082 149.016L135.082 149.016L135.224 148.026ZM150.064 149.652L149.999 150.65L149.999 150.65L150.064 149.652ZM180.385 149.193L180.523 150.184L180.685 150.161L180.832 150.088L180.385 149.193ZM180.387 149.192L180.247 148.202L180.085 148.225L179.94 148.298L180.387 149.192ZM194.154 146.438L193.933 145.463L193.933 145.463L194.154 146.438ZM204.167 143.927L204.421 144.894L204.421 144.894L204.167 143.927ZM208.415 142.797L208.675 143.763L208.675 143.763L208.415 142.797ZM209.696 142.452L209.958 143.417L209.958 143.417L209.696 142.452ZM210.045 142.357L209.783 141.392L209.783 141.392L210.045 142.357ZM210.135 142.333L209.872 141.368L209.872 141.368L210.135 142.333ZM210.158 142.326L209.896 141.361L209.892 141.362L210.158 142.326ZM210.164 142.325L210.361 143.306L210.492 143.279L210.611 143.22L210.164 142.325ZM210.166 142.324L209.91 141.358L209.81 141.384L209.719 141.43L210.166 142.324ZM210.214 142.312L210.47 143.278L210.527 143.263L210.582 143.241L210.214 142.312ZM210.261 142.293V141.293H210.07L209.893 141.363L210.261 142.293ZM210.263 142.293V143.293H210.448L210.62 143.227L210.263 142.293ZM210.269 142.291L210.616 143.229L210.626 143.225L210.269 142.291ZM210.29 142.282L209.932 141.349L209.93 141.349L210.29 142.282ZM210.376 142.249L210.017 141.316L210.017 141.316L210.376 142.249ZM210.703 142.123L211.065 143.055L211.065 143.055L210.703 142.123ZM211.913 141.65L212.279 142.581L212.279 142.581L211.913 141.65ZM215.997 140.008L216.377 140.933L216.377 140.933L215.997 140.008ZM226.322 135.42L225.875 134.525L225.874 134.526L226.322 135.42ZM226.326 135.418L226.773 136.312L226.778 136.31L226.326 135.418ZM242.666 126.943L243.373 126.236L242.853 125.716L242.202 126.058L242.666 126.943ZM242.667 126.944L241.96 127.651L242.479 128.171L243.13 127.831L242.667 126.944ZM259.335 122.844L259.335 121.844L259.335 121.844L259.335 122.844ZM288.692 122.844L288.692 123.844L288.692 123.844L288.692 122.844ZM295.538 116.35L296.537 116.404L296.538 116.377V116.35H295.538ZM295.538 116.347L294.539 116.295L294.538 116.321V116.347H295.538ZM297.475 112.719L298.077 113.517L298.994 112.824L298.182 112.012L297.475 112.719ZM297.474 112.718L296.875 111.917L295.95 112.608L296.767 113.425L297.474 112.718ZM301.065 110.032L301.664 110.833L301.722 110.79L301.773 110.739L301.065 110.032ZM301.067 110.03L300.467 109.231L300.41 109.273L300.36 109.323L301.067 110.03ZM303.965 107.244L303.258 106.537L303.222 106.573L303.19 106.613L303.965 107.244ZM303.966 107.243L304.673 107.95L304.709 107.914L304.741 107.874L303.966 107.243ZM305.778 105.016L306.554 105.647L306.554 105.647L305.778 105.016ZM310.819 97.0518L310.112 96.3447L309.992 96.465L309.918 96.6184L310.819 97.0518ZM310.82 97.0508L311.527 97.7579L311.648 97.6368L311.722 97.4824L310.82 97.0508ZM314.589 83.4492L315.584 83.5444L315.589 83.4969V83.4492H314.589ZM314.589 83.4482L313.593 83.3545L313.589 83.4013V83.4482H314.589ZM314.818 81.0098L313.924 80.5626L313.84 80.7298L313.823 80.9161L314.818 81.0098ZM314.819 81.0078L315.714 81.455L315.798 81.2871L315.815 81.1002L314.819 81.0078ZM314.471 70.415H313.471V70.4936L313.483 70.5711L314.471 70.415ZM314.471 70.4131H315.471V70.3288L315.457 70.2457L314.471 70.4131ZM314.336 69.6191L315.322 69.4518L315.32 69.4427L314.336 69.6191ZM310.896 58.9463L311.799 58.515L311.795 58.5064L310.896 58.9463ZM310.542 58.2227L311.44 57.7827L311.437 57.7762L310.542 58.2227ZM309.001 55.1338L309.896 54.6874L309.823 54.5418L309.708 54.4267L309.001 55.1338ZM309 55.1328L308.111 55.5914L308.183 55.7298L308.293 55.8399L309 55.1328ZM308.733 54.6162L309.622 54.1576L309.617 54.1471L308.733 54.6162ZM303.392 47.8379L304.054 47.0889L304.054 47.0885L303.392 47.8379ZM296.626 41.8604V40.8604H293.984L295.964 42.6098L296.626 41.8604ZM296.627 41.8604V42.8604H299.251L297.293 41.1141L296.627 41.8604ZM295.367 38.8262L294.369 38.7635L294.369 38.7646L295.367 38.8262ZM286.507 32.7568L286.44 33.7546L286.473 33.7568H286.507V32.7568ZM274.621 31.9561L274.688 30.9583L274.688 30.9583L274.621 31.9561ZM218.733 16.3623V15.3623L218.365 17.2918L218.733 16.3623ZM218.734 16.3623V17.3623L219.104 15.4332L218.734 16.3623ZM198.52 9.92676L198.75 8.95366L198.636 8.92676H198.52V9.92676ZM198.519 9.92676L198.289 10.9001L198.402 10.9268H198.519V9.92676ZM138.015 2.27148L138.136 3.26407C147.315 2.14002 158.931 1.64685 170.813 2.27789L170.866 1.2793L170.919 0.280704C158.923 -0.356382 147.191 0.140338 137.893 1.2789L138.015 2.27148ZM170.866 1.2793L170.813 2.27789C181.944 2.86953 191.108 4.02478 199.373 5.84858L199.589 4.87207L199.804 3.89556C191.406 2.0425 182.129 0.876575 170.919 0.280707L170.866 1.2793ZM199.589 4.87207L199.367 5.84723L201.023 6.22321L201.244 5.24805L201.466 4.27289L199.81 3.89691L199.589 4.87207ZM201.244 5.24805L201.012 6.22069L202.607 6.60155L202.839 5.62891L203.071 4.65626L201.476 4.2754L201.244 5.24805ZM202.839 5.62891L202.604 6.60083C210.312 8.46698 215.018 10.0448 222.8 13.1242L223.168 12.1943L223.536 11.2645C215.687 8.15856 210.891 6.54937 203.074 4.65698L202.839 5.62891ZM223.168 12.1943L222.8 13.1242C242.496 20.914 262.657 27.915 283.857 27.915L283.857 26.915L283.857 25.915C263.07 25.915 243.219 19.0495 223.536 11.2644L223.168 12.1943ZM283.857 26.915V27.915H291.383V26.915V25.915H283.857V26.915ZM291.383 26.915L291.383 27.915C295.344 27.9152 298.553 31.1109 298.553 35.0547L299.553 35.0547L300.553 35.0547C300.553 29.998 296.44 25.9153 291.383 25.915L291.383 26.915ZM299.553 35.0547L298.553 35.0548C298.553 37.0954 299.433 39.0481 300.968 40.3991L301.629 39.6484L302.29 38.8978C301.187 37.927 300.553 36.5215 300.553 35.0546L299.553 35.0547ZM301.629 39.6484L300.968 40.399L307.553 46.1968L308.214 45.4463L308.875 44.6958L302.29 38.8979L301.629 39.6484ZM308.214 45.4463L307.767 46.3407L307.769 46.3417L308.216 45.4473L308.663 44.5528L308.661 44.5519L308.214 45.4463ZM308.216 45.4473L307.554 46.1965C310.108 48.4545 312.207 51.1764 313.732 54.2134L314.626 53.7646L315.52 53.3159C313.88 50.0495 311.623 47.124 308.878 44.698L308.216 45.4473ZM314.626 53.7646L313.732 54.2133L315.287 57.31L316.181 56.8613L317.074 56.4126L315.52 53.316L314.626 53.7646ZM316.181 56.8613L315.287 57.31C317.317 61.3525 318.723 65.6905 319.436 70.1567L320.424 69.999L321.411 69.8414C320.666 65.1703 319.195 60.6362 317.074 56.4126L316.181 56.8613ZM320.424 69.999L319.435 70.15L319.544 70.8599L320.532 70.709L321.521 70.5581L321.412 69.8481L320.424 69.999ZM320.532 70.709L319.543 70.8521C320.045 74.3261 320.137 77.8557 319.802 81.3592L320.798 81.4541L321.793 81.549C322.143 77.8849 322.047 74.1955 321.522 70.5659L320.532 70.709ZM320.798 81.4541L319.802 81.361L319.555 84.0026L320.551 84.0957L321.546 84.1888L321.794 81.5472L320.798 81.4541ZM320.551 84.0957L319.555 84.0025C319.09 88.9719 317.733 93.8434 315.574 98.3397L316.476 98.7725L317.377 99.2053C319.637 94.4969 321.059 89.3957 321.546 84.1889L320.551 84.0957ZM316.476 98.7725L315.768 98.0654L315.768 98.0663L316.475 98.7734L317.182 99.4805L317.183 99.4796L316.476 98.7725ZM316.475 98.7734L315.574 98.339C314.128 101.337 312.336 104.158 310.247 106.731L311.023 107.361L311.8 107.992C313.987 105.298 315.862 102.345 317.375 99.2078L316.475 98.7734ZM311.023 107.361L310.316 106.654L310.313 106.657L311.021 107.364L311.728 108.071L311.731 108.068L311.023 107.361ZM311.021 107.364L310.247 106.731L308.197 109.236L308.971 109.869L309.745 110.502L311.794 107.998L311.021 107.364ZM308.971 109.869L309.678 109.162L309.677 109.161L308.97 109.868L308.263 110.575L308.264 110.576L308.971 109.869ZM308.97 109.868L308.194 109.237C307.376 110.242 306.446 111.137 305.405 111.918L306.005 112.718L306.605 113.518C307.777 112.638 308.824 111.631 309.745 110.5L308.97 109.868ZM306.005 112.718L305.45 111.886L305.447 111.888L306.002 112.72L306.557 113.552L306.56 113.55L306.005 112.718ZM306.002 112.72L305.404 111.918L302.216 114.294L302.813 115.096L303.411 115.898L306.599 113.522L306.002 112.72ZM302.813 115.096L302.216 114.294C300.216 115.782 299.048 118.12 299.048 120.604L300.048 120.604L301.048 120.605C301.048 118.75 301.919 117.008 303.411 115.898L302.813 115.096ZM300.048 120.604H299.048C299.048 124.962 295.493 128.493 291.126 128.493L291.126 129.493L291.126 130.493C296.587 130.493 301.048 126.077 301.048 120.604H300.048ZM291.126 129.493V128.493H261.954V129.493V130.493H291.126V129.493ZM261.954 129.493V128.493C254.815 128.493 247.853 130.583 241.743 134.241L242.257 135.099L242.771 135.957C248.596 132.468 255.207 130.493 261.954 130.493V129.493ZM242.257 135.099L241.742 134.241C238.998 135.888 236.091 137.575 233.693 138.831L234.157 139.717L234.621 140.603C237.071 139.32 240.017 137.609 242.771 135.956L242.257 135.099ZM234.157 139.717L233.7 138.827L232.695 139.344L233.151 140.233L233.608 141.123L234.614 140.606L234.157 139.717ZM233.151 140.233L232.702 139.34C229.415 140.991 225.083 142.841 221.573 144.277L221.951 145.202L222.33 146.128C225.849 144.688 230.24 142.815 233.6 141.127L233.151 140.233ZM221.951 145.202L221.573 144.277C219.818 144.994 218.268 145.609 217.157 146.044L217.521 146.976L217.886 147.907C219.004 147.469 220.564 146.85 222.33 146.128L221.951 145.202ZM217.521 146.976L217.157 146.044C216.602 146.262 216.155 146.435 215.848 146.553L216.208 147.486L216.568 148.419C216.878 148.3 217.327 148.126 217.886 147.907L217.521 146.976ZM216.208 147.486L215.848 146.553C215.696 146.612 215.581 146.656 215.496 146.688L215.854 147.622L216.211 148.556C216.288 148.526 216.413 148.479 216.568 148.419L216.208 147.486ZM215.854 147.622L215.496 146.688C215.442 146.709 215.45 146.706 215.404 146.723L215.761 147.657L216.117 148.592C216.125 148.588 216.135 148.585 216.153 148.578C216.169 148.572 216.189 148.565 216.211 148.556L215.854 147.622ZM215.761 147.657L215.404 146.723C215.379 146.733 215.358 146.741 215.35 146.745C215.349 146.746 215.346 146.747 215.346 146.747C215.345 146.747 215.346 146.747 215.348 146.746C215.349 146.746 215.352 146.744 215.356 146.743C215.36 146.741 215.367 146.738 215.375 146.735L215.737 147.667L216.1 148.599C216.109 148.595 216.117 148.592 216.123 148.59C216.128 148.587 216.133 148.585 216.136 148.584C216.139 148.583 216.141 148.582 216.143 148.581C216.144 148.581 216.143 148.581 216.144 148.581C216.144 148.581 216.144 148.581 216.144 148.581C216.144 148.581 216.133 148.586 216.117 148.591L215.761 147.657ZM215.737 147.667L215.381 146.733C215.394 146.727 215.406 146.724 215.414 146.721C215.422 146.718 215.428 146.716 215.431 146.715C215.433 146.715 215.434 146.714 215.434 146.714C215.434 146.714 215.433 146.715 215.431 146.715C215.43 146.715 215.427 146.717 215.422 146.718C215.418 146.719 215.412 146.721 215.403 146.724L215.731 147.669L216.06 148.614C216.052 148.616 216.045 148.618 216.042 148.62C216.038 148.621 216.035 148.622 216.034 148.622C216.033 148.622 216.032 148.623 216.033 148.622C216.033 148.622 216.035 148.622 216.037 148.621C216.041 148.62 216.048 148.618 216.057 148.614C216.067 148.611 216.079 148.607 216.093 148.601L215.737 147.667ZM215.731 147.669L215.284 146.775L215.282 146.775L215.729 147.67L216.177 148.564L216.179 148.563L215.731 147.669ZM215.729 147.67L215.378 146.734L215.331 146.751L215.683 147.688L216.034 148.624L216.081 148.606L215.729 147.67ZM215.683 147.688L215.426 146.721L215.378 146.734L215.635 147.7L215.891 148.667L215.939 148.654L215.683 147.688ZM215.635 147.7L215.188 146.806L215.186 146.807L215.633 147.701L216.08 148.596L216.082 148.595L215.635 147.7ZM215.633 147.701L215.371 146.736C215.387 146.732 215.401 146.728 215.413 146.726C215.425 146.723 215.436 146.721 215.444 146.719C215.462 146.716 215.475 146.714 215.484 146.712C215.492 146.711 215.499 146.71 215.501 146.71C215.502 146.71 215.503 146.71 215.503 146.71C215.504 146.71 215.503 146.71 215.502 146.71C215.501 146.71 215.496 146.711 215.491 146.711C215.485 146.712 215.477 146.713 215.468 146.715C215.45 146.718 215.423 146.723 215.39 146.731L215.627 147.702L215.864 148.674C215.832 148.681 215.806 148.686 215.789 148.689C215.773 148.692 215.76 148.693 215.758 148.693C215.758 148.693 215.757 148.693 215.758 148.693C215.758 148.693 215.759 148.693 215.761 148.693C215.764 148.693 215.771 148.692 215.78 148.69C215.788 148.689 215.803 148.687 215.82 148.683C215.837 148.68 215.863 148.675 215.894 148.666L215.633 147.701ZM215.627 147.702L215.365 146.737C215.339 146.744 215.377 146.734 215.34 146.744L215.602 147.709L215.863 148.674C215.867 148.673 215.871 148.672 215.876 148.671C215.879 148.67 215.884 148.668 215.888 148.667L215.627 147.702ZM215.602 147.709L215.34 146.744C215.323 146.748 215.303 146.754 215.29 146.758C215.274 146.762 215.259 146.766 215.242 146.771L215.503 147.736L215.764 148.702C215.79 148.695 215.813 148.688 215.83 148.683C215.85 148.678 215.858 148.676 215.863 148.674L215.602 147.709ZM215.503 147.736L215.242 146.771C215.156 146.794 215.031 146.828 214.866 146.872L215.126 147.838L215.386 148.803C215.548 148.76 215.677 148.725 215.764 148.702L215.503 147.736ZM215.126 147.838L214.866 146.872C214.539 146.96 214.064 147.088 213.477 147.245L213.735 148.211L213.994 149.177C214.581 149.02 215.057 148.892 215.386 148.803L215.126 147.838ZM213.735 148.211L213.477 147.245C212.303 147.559 210.676 147.992 208.87 148.465L209.124 149.433L209.378 150.4C211.187 149.926 212.817 149.492 213.994 149.177L213.735 148.211ZM209.124 149.433L208.87 148.465C205.712 149.293 201.998 150.247 199.187 150.908L199.416 151.882L199.645 152.855C202.483 152.187 206.217 151.228 209.378 150.4L209.124 149.433ZM199.416 151.882L199.191 150.907L198.04 151.173L198.265 152.147L198.489 153.122L199.641 152.856L199.416 151.882ZM198.265 152.147L198.045 151.172C192.272 152.474 189.043 153.312 183.192 154.131L183.33 155.121L183.469 156.111C189.423 155.279 192.749 154.416 198.485 153.123L198.265 152.147ZM183.33 155.121V154.121H183.329V155.121V156.121H183.33V155.121ZM183.329 155.121L183.191 154.131C177.329 154.949 161.545 155.343 150.514 154.623L150.449 155.621L150.384 156.619C161.497 157.344 177.426 156.955 183.467 156.111L183.329 155.121ZM150.449 155.621L150.514 154.623C144.994 154.263 139.052 153.524 134.491 152.874L134.35 153.864L134.209 154.854C138.792 155.507 144.791 156.254 150.384 156.619L150.449 155.621ZM134.35 153.864L134.491 152.874C132.21 152.549 130.274 152.248 128.909 152.027L128.749 153.014L128.589 154.001C129.965 154.224 131.914 154.527 134.209 154.854L134.35 153.864ZM128.749 153.014L128.909 152.027C128.227 151.916 127.686 151.826 127.316 151.763L127.149 152.749L126.982 153.735C127.356 153.798 127.902 153.889 128.589 154.001L128.749 153.014ZM127.149 152.749L127.316 151.763C127.133 151.732 126.993 151.707 126.894 151.69L126.724 152.676L126.553 153.661C126.648 153.678 126.795 153.703 126.982 153.735L127.149 152.749ZM126.724 152.676L126.894 151.69C126.778 151.67 126.858 151.685 126.785 151.672L126.613 152.657L126.442 153.642C126.459 153.645 126.481 153.649 126.496 153.652C126.514 153.655 126.533 153.658 126.553 153.661L126.724 152.676ZM126.613 152.657L126.785 151.672C126.735 151.663 126.793 151.674 126.757 151.667L126.585 152.652L126.413 153.637C126.418 153.638 126.424 153.639 126.428 153.64C126.433 153.641 126.437 153.642 126.441 153.642L126.613 152.657ZM126.585 152.652L126.757 151.667C126.794 151.674 126.825 151.681 126.847 151.687C126.869 151.693 126.886 151.699 126.893 151.701C126.897 151.702 126.9 151.703 126.899 151.703C126.899 151.703 126.898 151.703 126.896 151.702C126.895 151.702 126.893 151.701 126.89 151.7C126.885 151.698 126.874 151.695 126.861 151.691C126.849 151.688 126.829 151.682 126.804 151.676L126.578 152.65L126.352 153.625C126.328 153.619 126.308 153.613 126.296 153.61C126.284 153.606 126.274 153.603 126.269 153.601C126.265 153.6 126.261 153.599 126.262 153.599C126.262 153.599 126.262 153.599 126.262 153.599C126.263 153.599 126.263 153.599 126.264 153.6C126.265 153.6 126.267 153.601 126.269 153.601C126.278 153.604 126.296 153.61 126.319 153.616C126.343 153.623 126.374 153.631 126.412 153.637L126.585 152.652ZM126.578 152.65V151.65H126.575V152.65V153.65H126.578V152.65ZM126.575 152.65L126.747 151.665L126.702 151.657L126.53 152.643L126.359 153.628L126.404 153.636L126.575 152.65ZM126.53 152.643L126.802 151.68L126.757 151.668L126.485 152.63L126.213 153.592L126.258 153.605L126.53 152.643ZM126.485 152.63L126.749 151.665L116.014 148.736L115.751 149.701L115.488 150.666L126.222 153.595L126.485 152.63ZM115.751 149.701V148.701H115.75V149.701V150.701H115.751V149.701ZM115.75 149.701L116.014 148.737C106.36 146.094 97.0117 142.445 88.1296 137.86L87.6709 138.749L87.2122 139.638C96.2182 144.287 105.697 147.986 115.486 150.666L115.75 149.701ZM87.6709 138.749L88.145 137.869L88.1196 137.855L87.6455 138.735L87.1714 139.616L87.1968 139.629L87.6709 138.749ZM87.6455 138.735L88.1295 137.86C76.4352 131.392 63.2848 128 49.9072 128L49.9072 129L49.9072 130C62.9467 130 75.7639 133.306 87.1615 139.61L87.6455 138.735ZM49.9072 129V128H30.9043V129V130H49.9072V129ZM30.9043 129L30.9043 128C26.9633 128 23.7657 124.815 23.7656 120.891L22.7656 120.891L21.7656 120.891C21.7657 125.928 25.8669 130 30.9043 130L30.9043 129ZM22.7656 120.891L23.7656 120.891C23.7656 118.554 22.6065 116.364 20.7252 114.974L20.1309 115.778L19.5365 116.583C20.9335 117.615 21.7656 119.22 21.7656 120.891L22.7656 120.891ZM20.1309 115.778L20.5781 114.884L20.5761 114.883L20.1289 115.777L19.6817 116.672L19.6836 116.673L20.1309 115.778ZM20.1289 115.777L20.7249 114.974C19.1111 113.777 17.0716 112.208 15.1642 110.579L14.5146 111.339L13.8651 112.099C15.8206 113.77 17.8999 115.368 19.5329 116.58L20.1289 115.777ZM14.5146 111.339L15.1642 110.579C13.2574 108.95 11.4828 107.259 10.3983 105.815L9.59863 106.415L8.79894 107.015C10.0221 108.645 11.9377 110.453 13.8651 112.099L14.5146 111.339ZM9.59863 106.415L10.397 105.813C8.70877 103.574 7.09916 100.37 5.91234 97.7253L5 98.1348L4.08766 98.5442C5.28544 101.213 6.96969 104.59 8.80025 107.017L9.59863 106.415ZM5 98.1348L5.91234 97.7253C5.31894 96.403 4.83106 95.2201 4.49142 94.368L3.5625 94.7383L2.63358 95.1086C2.981 95.9802 3.48 97.1901 4.08766 98.5442L5 98.1348ZM3.5625 94.7383L4.49143 94.368C4.32148 93.9416 4.18845 93.5987 4.0985 93.3626L3.16406 93.7188L2.22962 94.0749C2.32337 94.3209 2.46008 94.6733 2.63357 95.1085L3.5625 94.7383ZM3.16406 93.7188L4.09851 93.3626C4.05397 93.2458 4.02331 93.1617 3.99633 93.0895L3.05957 93.4395L2.12281 93.7894C2.14376 93.8455 2.18227 93.9506 2.22962 94.0749L3.16406 93.7188ZM3.05957 93.4395L3.99633 93.0895C3.98717 93.065 3.97904 93.0442 3.97372 93.0307C3.97067 93.023 3.96944 93.0199 3.96813 93.0165C3.96692 93.0134 3.9676 93.0151 3.96908 93.0191L3.03125 93.3662L2.09342 93.7133C2.09802 93.7257 2.1023 93.7368 2.10511 93.744C2.10783 93.7509 2.11105 93.7591 2.11281 93.7636C2.1171 93.7745 2.12001 93.7819 2.12282 93.7894L3.05957 93.4395ZM3.03125 93.3662L3.96911 93.0192C3.97214 93.0274 3.97417 93.0334 3.97391 93.0327C3.97374 93.0321 3.97378 93.0323 3.97328 93.0308C3.97295 93.0298 3.9723 93.0279 3.97154 93.0257C3.97077 93.0234 3.96963 93.0202 3.96826 93.0163C3.9669 93.0124 3.96503 93.0071 3.96275 93.001L3.02441 93.3467L2.08608 93.6924C2.08421 93.6873 2.08276 93.6833 2.08184 93.6806C2.08091 93.678 2.08023 93.676 2.07994 93.6752C2.07966 93.6744 2.0795 93.6739 2.07968 93.6744C2.0797 93.6745 2.08028 93.6762 2.08066 93.6773C2.08264 93.6831 2.08727 93.6967 2.09339 93.7132L3.03125 93.3662ZM3.02441 93.3467L3.96255 93.0004C3.95491 92.9797 3.94818 92.9636 3.94667 92.96C3.94648 92.9595 3.94632 92.9591 3.94629 92.959C3.94621 92.9589 3.9463 92.9591 3.94641 92.9593C3.9466 92.9598 3.94738 92.9617 3.9484 92.9642C3.94942 92.9667 3.95109 92.9708 3.95311 92.9759C3.95512 92.981 3.95788 92.9881 3.96104 92.9967L3.02246 93.3418L2.08388 93.6869C2.08715 93.6958 2.09003 93.7032 2.09217 93.7086C2.09432 93.7141 2.09612 93.7185 2.09729 93.7214C2.09845 93.7242 2.09939 93.7265 2.09973 93.7273C2.09992 93.7278 2.10009 93.7282 2.10009 93.7282C2.10015 93.7283 2.10006 93.7281 2.09996 93.7279C2.09913 93.7258 2.09315 93.7116 2.08627 93.6929L3.02441 93.3467ZM3.02246 93.3418H4.02246V93.3398H3.02246H2.02246V93.3418H3.02246ZM3.02246 93.3398V92.3398H3.02148V93.3398V94.3398H3.02246V93.3398ZM3.02148 93.3398L3.96128 92.9981L3.93784 92.9336L2.99805 93.2754L2.05825 93.6171L2.08169 93.6816L3.02148 93.3398ZM2.99805 93.2754L3.97522 93.063L3.96057 92.9956L2.9834 93.208L2.00622 93.4204L2.02087 93.4878L2.99805 93.2754ZM2.9834 93.208H3.9834V93.207H2.9834H1.9834V93.208H2.9834ZM2.9834 93.207L3.9534 92.9639C3.94955 92.9486 3.94578 92.9351 3.94248 92.9239C3.93916 92.9126 3.93605 92.9028 3.93339 92.8947C3.92824 92.879 3.92373 92.8666 3.92119 92.8598C3.91866 92.8529 3.91657 92.8475 3.91627 92.8467C3.91614 92.8464 3.91603 92.8461 3.91603 92.8461C3.91599 92.846 3.91606 92.8462 3.91614 92.8464C3.91632 92.8468 3.91678 92.8481 3.91738 92.8496C3.91953 92.8553 3.92599 92.8723 3.93324 92.8945C3.94058 92.917 3.95057 92.9502 3.9595 92.9912L2.98242 93.2041L2.00534 93.417C2.01441 93.4586 2.02455 93.4924 2.03207 93.5154C2.03951 93.5382 2.04616 93.5557 2.0485 93.5619C2.04938 93.5642 2.05083 93.5679 2.0499 93.5655C2.04968 93.5649 2.04768 93.5598 2.04523 93.5531C2.04277 93.5465 2.03833 93.5343 2.03325 93.5188C2.02828 93.5037 2.02084 93.4798 2.01339 93.4501L2.9834 93.207ZM2.98242 93.2041L3.96053 92.996C3.9639 93.0119 3.96627 93.0249 3.96775 93.0336C3.96926 93.0423 3.97033 93.0493 3.9709 93.053C3.97146 93.0568 3.97187 93.0597 3.97188 93.0598C3.9719 93.0599 3.97191 93.06 3.9719 93.0599C3.9719 93.0599 3.97186 93.0596 3.97183 93.0594C3.97177 93.059 3.97164 93.0581 3.97148 93.0569C3.97086 93.0527 3.96938 93.0425 3.96723 93.0297C3.96504 93.0167 3.96194 92.9997 3.95766 92.98L2.98047 93.1924L2.00328 93.4047C1.99953 93.3875 1.99687 93.3729 1.99505 93.3621C1.99328 93.3516 1.99212 93.3435 1.99179 93.3412C1.99174 93.3409 1.9917 93.3407 1.99168 93.3405C1.99167 93.3404 1.99166 93.3403 1.99165 93.3403C1.99165 93.3402 1.99164 93.3402 1.99164 93.3402C1.9916 93.3399 1.99173 93.3409 1.99179 93.3413C1.99194 93.3423 1.99247 93.3461 1.99316 93.3507C1.99386 93.3553 1.99505 93.363 1.99669 93.3725C1.9983 93.3819 2.0008 93.3957 2.00432 93.4122L2.98242 93.2041ZM2.98047 93.1924L3.95764 92.9799C3.95638 92.9741 3.95518 92.9688 3.95434 92.965C3.9536 92.9617 3.95246 92.9567 3.95193 92.9543C3.9505 92.9479 3.94931 92.9426 3.94813 92.9371L2.9707 93.1484L1.99328 93.3597C1.99623 93.3734 1.99884 93.385 2.00071 93.3933C2.00182 93.3983 2.00222 93.4 2.00287 93.4029C2.00342 93.4054 2.00347 93.4056 2.0033 93.4049L2.98047 93.1924ZM2.9707 93.1484L3.94813 92.9371C3.94008 92.8999 3.9286 92.8459 3.91248 92.7705L2.93457 92.9795L1.95666 93.1885C1.97187 93.2597 1.9846 93.3196 1.99328 93.3597L2.9707 93.1484ZM2.93457 92.9795L3.91248 92.7705C3.88149 92.6255 3.83673 92.4138 3.78175 92.1497L2.80273 92.3535L1.82372 92.5573C1.87936 92.8246 1.92486 93.0397 1.95666 93.1885L2.93457 92.9795ZM2.80273 92.3535L3.78175 92.1497C3.67179 91.6215 3.52091 90.8838 3.35888 90.0432L2.37695 90.2324L1.39503 90.4217C1.5595 91.275 1.71247 92.0229 1.82372 92.5573L2.80273 92.3535ZM2.37695 90.2324L3.35888 90.0432C3.03458 88.3607 2.66316 86.265 2.47502 84.6134L1.48145 84.7266L0.487871 84.8397C0.685154 86.5716 1.06893 88.7299 1.39503 90.4217L2.37695 90.2324ZM1.48145 84.7266L2.18855 85.4337L2.18953 85.4327L1.48242 84.7256L0.775315 84.0185L0.774339 84.0195L1.48145 84.7266ZM1.48242 84.7256L2.47567 84.6096C2.28268 82.9568 2.07138 79.8902 2.01449 76.7378L1.01465 76.7559L0.0148113 76.7739C0.0725965 79.9755 0.286908 83.1094 0.48917 84.8416L1.48242 84.7256ZM1.01465 76.7559L2.01449 76.7378C1.95758 73.5841 2.05507 70.3429 2.47561 68.3457L1.49707 68.1396L0.518529 67.9336C0.0464882 70.1753 -0.0420826 73.6207 0.0148112 76.7739L1.01465 76.7559ZM1.49707 68.1396L2.47606 68.3436C2.89202 66.3467 3.75794 63.8808 4.52023 61.9153L3.58789 61.5537L2.65556 61.1921C1.88589 63.1766 0.969302 65.7696 0.518085 67.9357L1.49707 68.1396ZM3.58789 61.5537L4.52022 61.9153C4.90143 60.9324 5.25644 60.0741 5.51622 59.462L4.5957 59.0713L3.67518 58.6806C3.40904 59.3077 3.04585 60.1858 2.65556 61.1921L3.58789 61.5537ZM4.5957 59.0713L5.51622 59.462C5.64591 59.1564 5.75232 58.9116 5.82622 58.7428L4.91016 58.3418L3.9941 57.9408C3.91804 58.1145 3.80853 58.3664 3.67518 58.6806L4.5957 59.0713ZM4.91016 58.3418L5.82621 58.7428C5.86283 58.6592 5.89159 58.5942 5.91117 58.55L4.99707 58.1445L4.08297 57.739C4.06236 57.7855 4.03226 57.8536 3.9941 57.9407L4.91016 58.3418ZM4.99707 58.1445L5.91111 58.5502C5.91389 58.5439 5.91669 58.5377 5.9201 58.5303C5.92131 58.5276 5.92415 58.5214 5.92582 58.5177C5.92782 58.5134 5.93067 58.5071 5.93368 58.5003L5.02051 58.0928L4.10733 57.6852C4.1077 57.6844 4.10754 57.6847 4.1062 57.6877C4.10453 57.6913 4.10371 57.6931 4.10096 57.6992C4.09645 57.709 4.09017 57.7228 4.08303 57.7389L4.99707 58.1445ZM5.02051 58.0928L5.93418 58.4992C5.93982 58.4865 5.94425 58.476 5.94565 58.4727C5.94584 58.4722 5.94602 58.4718 5.94613 58.4715C5.94625 58.4712 5.9463 58.4711 5.94633 58.471C5.94642 58.4708 5.94619 58.4714 5.94582 58.4723C5.94545 58.4731 5.94469 58.4749 5.94367 58.4773C5.94268 58.4796 5.94111 58.4832 5.93911 58.4876L5.02637 58.0791L4.11363 57.6706C4.11128 57.6758 4.10934 57.6802 4.10797 57.6834C4.10657 57.6867 4.10541 57.6894 4.10462 57.6913C4.10383 57.6931 4.10316 57.6947 4.10278 57.6956C4.10259 57.6961 4.10241 57.6965 4.1023 57.6967C4.10217 57.6971 4.1021 57.6972 4.10205 57.6973C4.10148 57.6987 4.10368 57.6934 4.10683 57.6863L5.02051 58.0928ZM5.02637 58.0791L5.93346 58.5C5.92775 58.5123 5.92299 58.5219 5.92047 58.5269C5.91908 58.5297 5.91795 58.5319 5.91721 58.5334C5.91648 58.5348 5.91594 58.5358 5.91586 58.536C5.9155 58.5367 5.9162 58.5353 5.91659 58.5346C5.91712 58.5335 5.91836 58.5311 5.9199 58.5281C5.92139 58.5252 5.92394 58.5201 5.92702 58.5138C5.92861 58.5105 5.93058 58.5064 5.93279 58.5017C5.93499 58.4971 5.93773 58.4912 5.94083 58.4843L5.02832 58.0752L4.11581 57.6661C4.11886 57.6593 4.12156 57.6535 4.1237 57.649C4.12586 57.6444 4.12777 57.6404 4.12929 57.6373C4.13225 57.6312 4.13467 57.6264 4.13601 57.6238C4.1374 57.6211 4.13848 57.619 4.13885 57.6183C4.13906 57.6178 4.13959 57.6168 4.13905 57.6179C4.13869 57.6186 4.13626 57.6232 4.13333 57.6291C4.13044 57.6348 4.12531 57.6452 4.11927 57.6582L5.02637 58.0791ZM5.02832 58.0752H6.02832V58.0732H5.02832H4.02832V58.0752H5.02832ZM5.02832 58.0732V59.0732H5.0293V58.0732V57.0732H5.02832V58.0732ZM5.0293 58.0732L5.94685 58.4708L5.95955 58.4416L5.04199 58.0439L4.12444 57.6463L4.11174 57.6756L5.0293 58.0732ZM5.04199 58.0439L5.92435 58.5145L5.93997 58.4852L5.05762 58.0146L4.17526 57.5441L4.15964 57.5734L5.04199 58.0439ZM5.05762 58.0146L5.94128 58.4828L7.93151 54.7259L7.04785 54.2578L6.16419 53.7897L4.17396 57.5465L5.05762 58.0146ZM7.04785 54.2578L7.94228 54.705L7.94326 54.7031L7.04883 54.2559L6.1544 53.8086L6.15342 53.8106L7.04785 54.2578ZM7.04883 54.2559L7.93138 54.7261C9.56518 51.6596 11.6453 48.8592 14.1109 46.4039L13.4053 45.6953L12.6997 44.9867C10.0934 47.582 7.89394 50.543 6.16628 53.7856L7.04883 54.2559ZM13.4053 45.6953L14.1109 46.4039L15.5269 44.9937L14.8213 44.2852L14.1156 43.5766L12.6996 44.9867L13.4053 45.6953ZM14.8213 44.2852L15.5269 44.9938C16.0683 44.4546 16.6524 43.9677 17.2789 43.5343L16.71 42.7119L16.141 41.8895C15.4159 42.3912 14.7405 42.9544 14.1157 43.5765L14.8213 44.2852ZM16.71 42.7119L17.4171 43.419L17.418 43.418L16.7109 42.7109L16.0038 42.0038L16.0029 42.0048L16.71 42.7119ZM16.7109 42.7109L17.2788 43.5341L19.4077 42.0653L18.8398 41.2422L18.272 40.4191L16.1431 41.8878L16.7109 42.7109ZM18.8398 41.2422L19.2871 42.1366L19.289 42.1356L18.8418 41.2412L18.3946 40.3468L18.3926 40.3478L18.8398 41.2422ZM18.8418 41.2412L19.4082 42.0653C21.5169 40.6159 22.7753 38.2296 22.7754 35.6758L21.7754 35.6758L20.7754 35.6757C20.7753 37.5687 19.8431 39.3396 18.2754 40.4171L18.8418 41.2412ZM21.7754 35.6758L22.7754 35.6758C22.7755 31.3964 26.2609 27.915 30.5684 27.915V26.915V25.915C25.1627 25.915 20.7755 30.2855 20.7754 35.6758L21.7754 35.6758ZM30.5684 26.915V27.915H35.6475V26.915V25.915H30.5684V26.915ZM35.6475 26.915L35.6475 27.915C58.165 27.915 80.4163 23.1524 100.944 13.9427L100.534 13.0303L100.125 12.1179C79.8552 21.212 57.8829 25.915 35.6475 25.915L35.6475 26.915ZM100.534 13.0303L100.943 13.9428C110.201 9.79186 119.816 6.40953 129.796 4.58526L129.616 3.60156L129.436 2.61786C119.252 4.47934 109.48 7.92328 100.125 12.1178L100.534 13.0303ZM129.616 3.60156L129.798 4.58492C132.679 4.05251 135.591 3.57942 138.136 3.26388L138.013 2.27148L137.89 1.27908C135.293 1.60102 132.34 2.08131 129.435 2.61821L129.616 3.60156ZM138.013 2.27148V3.27148H138.015V2.27148V1.27148H138.013V2.27148ZM170.508 6.25879L170.561 5.2602C160.194 4.70894 150.036 5.07472 141.738 5.99437L141.848 6.98828L141.958 7.9822C150.146 7.07468 160.196 6.71185 170.455 7.25738L170.508 6.25879ZM141.848 6.98828L141.732 5.99502L140.109 6.18448L140.225 7.17773L140.341 8.17099L141.964 7.98154L141.848 6.98828ZM140.225 7.17773L140.104 6.18507C138.244 6.41163 136.185 6.73958 134.122 7.09245L134.291 8.07812L134.46 9.0638C136.512 8.71269 138.534 8.39111 140.346 8.17039L140.225 7.17773ZM134.291 8.07812V7.07812H134.288V8.07812V9.07812H134.291V8.07812ZM134.288 8.07812L134.116 7.093C124.148 8.83155 114.587 12.1389 105.419 16.1594L105.82 17.0752L106.222 17.991C115.296 14.0118 124.698 10.7658 134.46 9.06325L134.288 8.07812ZM105.82 17.0752L105.414 16.1616L103.594 16.9711L104.001 17.8848L104.408 18.7984L106.227 17.9888L105.82 17.0752ZM104.001 17.8848L103.591 16.9728C85.9246 24.9225 66.9923 29.6711 47.6746 30.9994L47.7432 31.9971L47.8118 32.9947C67.3657 31.6502 86.5294 26.8435 104.411 18.7967L104.001 17.8848ZM47.7432 31.9971L47.674 30.9995L36.7111 31.7592L36.7803 32.7568L36.8494 33.7544L47.8123 32.9947L47.7432 31.9971ZM36.7803 32.7568V31.7568H34.3145V32.7568V33.7568H36.7803V32.7568ZM34.3145 32.7568L34.3144 31.7568C30.1825 31.7571 26.7346 34.8912 26.3291 38.9794L27.3242 39.0781L28.3193 39.1768C28.6234 36.1115 31.2108 33.757 34.3145 33.7568L34.3145 32.7568ZM27.3242 39.0781L26.3271 39.0027L26.3007 39.3513L27.2979 39.4268L28.295 39.5022L28.3214 39.1535L27.3242 39.0781ZM27.2979 39.4268L26.2993 39.3723C26.2313 40.6212 25.5867 41.776 24.5582 42.4854L25.126 43.3086L25.6938 44.1317C27.2343 43.0691 28.1948 41.3453 28.2964 39.4812L27.2979 39.4268ZM25.126 43.3086L24.5579 42.4856L21.9846 44.262L22.5527 45.085L23.1208 45.9079L25.6941 44.1315L25.126 43.3086ZM22.5527 45.085L21.998 44.2529L21.9892 44.2588L22.5439 45.0908L23.0986 45.9229L23.1074 45.917L22.5527 45.085ZM22.5439 45.0908L21.9678 44.2735C21.2702 44.7652 20.6175 45.3116 20.0115 45.9112L20.7148 46.6221L21.4182 47.3329C21.9453 46.8114 22.513 46.3361 23.1201 45.9082L22.5439 45.0908ZM20.7148 46.6221L20.0077 45.915L20.0038 45.9189L20.7109 46.626L21.418 47.3331L21.422 47.3292L20.7148 46.6221ZM20.7109 46.626L20.0033 45.9194L18.7425 47.1821L19.4502 47.8887L20.1578 48.5952L21.4186 47.3325L20.7109 46.626ZM19.4502 47.8887L18.7439 47.1808C16.3298 49.5894 14.288 52.3501 12.6929 55.3554L13.5762 55.8242L14.4595 56.2931C15.9613 53.4636 17.8838 50.8641 20.1565 48.5966L19.4502 47.8887ZM13.5762 55.8242L12.6817 55.377L12.6808 55.379L13.5752 55.8262L14.4696 56.2734L14.4706 56.2714L13.5762 55.8242ZM13.5752 55.8262L12.6908 55.3595L10.8588 58.8311L11.7432 59.2979L12.6276 59.7646L14.4596 56.2929L13.5752 55.8262ZM11.7432 59.2979L10.8608 58.8273L10.8452 58.8566L11.7275 59.3271L12.6099 59.7977L12.6255 59.7684L11.7432 59.2979ZM11.7275 59.3271L10.8162 58.9156L10.8025 58.9458L11.7139 59.3574L12.6252 59.769L12.6389 59.7387L11.7275 59.3271ZM11.7139 59.3574H10.7139V59.3584H11.7139H12.7139V59.3574H11.7139ZM11.7139 59.3584L10.8147 58.9208C10.818 58.914 10.8207 58.9087 10.8221 58.906C10.8235 58.9031 10.8247 58.9008 10.8251 58.9001C10.8254 58.8994 10.8259 58.8986 10.8255 58.8993C10.8253 58.8996 10.8247 58.9008 10.8239 58.9023C10.8225 58.9051 10.8193 58.9112 10.8155 58.919C10.8119 58.9263 10.8056 58.9393 10.7983 58.9557L11.7119 59.3623L12.6255 59.7689C12.6185 59.7846 12.6126 59.7969 12.6093 59.8035C12.6058 59.8106 12.6031 59.816 12.602 59.818C12.6014 59.8192 12.6009 59.82 12.6009 59.82C12.6007 59.8205 12.6013 59.8193 12.6018 59.8183C12.6024 59.8172 12.6037 59.8147 12.6053 59.8116C12.6068 59.8086 12.6096 59.803 12.6131 59.796L11.7139 59.3584ZM11.7119 59.3623L10.7998 58.9524C10.8013 58.949 10.8026 58.9463 10.8033 58.9447C10.8041 58.943 10.8046 58.9418 10.8048 58.9414C10.805 58.941 10.8051 58.9407 10.8049 58.9412C10.8048 58.9414 10.8043 58.9424 10.8039 58.9433C10.8022 58.947 10.7975 58.9571 10.792 58.9694L11.7061 59.375L12.6201 59.7806C12.6169 59.7878 12.6145 59.793 12.6148 59.7923C12.6148 59.7922 12.6149 59.7921 12.6152 59.7913C12.6155 59.7908 12.6161 59.7896 12.6167 59.7882C12.6173 59.7869 12.6183 59.7848 12.6195 59.7823C12.6206 59.7798 12.6222 59.7763 12.6241 59.7722L11.7119 59.3623ZM11.7061 59.375L10.7917 58.9702C10.7874 58.9797 10.7838 58.9881 10.7817 58.9932C10.7796 58.998 10.7771 59.004 10.7761 59.0065C10.7732 59.0133 10.7718 59.0165 10.7706 59.0193L11.6855 59.4229L12.6005 59.8264C12.6083 59.8087 12.6147 59.7935 12.6186 59.7843C12.621 59.7787 12.6216 59.7772 12.6225 59.7752C12.6232 59.7735 12.6222 59.7758 12.6204 59.7798L11.7061 59.375ZM11.6855 59.4229L10.7706 59.0192C10.7613 59.0403 10.7208 59.1302 10.6876 59.2063L11.6045 59.6055L12.5214 60.0046C12.5571 59.9226 12.5727 59.8894 12.6005 59.8265L11.6855 59.4229ZM11.6045 59.6055L10.6876 59.2063C10.6168 59.3689 10.5164 59.6027 10.3942 59.8923L11.3154 60.2812L12.2367 60.6702C12.3566 60.3862 12.454 60.1593 12.5214 60.0046L11.6045 59.6055ZM11.3154 60.2812L10.3942 59.8923C10.1488 60.4735 9.81385 61.2874 9.45383 62.2199L10.3867 62.5801L11.3196 62.9402C11.6707 62.031 11.9976 61.2366 12.2367 60.6702L11.3154 60.2812ZM10.3867 62.5801L9.45383 62.2199C8.74479 64.0565 7.89567 66.4626 7.47521 68.4763L8.4541 68.6807L9.43299 68.8851C9.81845 67.039 10.6175 64.7589 11.3196 62.9402L10.3867 62.5801ZM8.4541 68.6807L7.47521 68.4763C7.03899 70.5658 6.96034 73.7668 7.01286 76.6821L8.0127 76.6641L9.01253 76.6461C8.95999 73.7291 9.04756 70.7313 9.433 68.885L8.4541 68.6807ZM8.0127 76.6641L7.01286 76.6821C7.06629 79.6473 7.26285 82.5501 7.44696 84.1532L8.44043 84.0391L9.4339 83.925C9.25869 82.3994 9.06509 79.5624 9.01253 76.646L8.0127 76.6641ZM8.44043 84.0391L7.73332 83.332L7.73235 83.3329L8.43945 84.04L9.14656 84.7471L9.14754 84.7462L8.44043 84.0391ZM8.43945 84.04L7.44595 84.1538C7.63005 85.7614 7.98309 87.7608 8.28135 89.3259L9.26367 89.1387L10.246 88.9515C9.94933 87.3947 9.60816 85.4561 9.43296 83.9263L8.43945 84.04ZM9.26367 89.1387L8.28135 89.3259C8.4318 90.1153 8.57106 90.8077 8.67281 91.3028L9.65234 91.1016L10.6319 90.9003C10.5316 90.4123 10.3943 89.7296 10.246 88.9515L9.26367 89.1387ZM9.65234 91.1016L8.67281 91.3028C8.72344 91.5493 8.7648 91.7486 8.79398 91.887L9.77246 91.6807L10.7509 91.4743C10.7228 91.3409 10.6823 91.1454 10.6319 90.9003L9.65234 91.1016ZM9.77246 91.6807L8.79398 91.887C8.80856 91.9562 8.82017 92.0104 8.82765 92.0454L9.80566 91.8369L10.7837 91.6284C10.7759 91.5918 10.7649 91.5407 10.7509 91.4743L9.77246 91.6807ZM9.80566 91.8369L8.82765 92.0454C8.83155 92.0638 8.83501 92.0798 8.83665 92.0875L9.81445 91.8779L10.7923 91.6684C10.7899 91.6575 10.7874 91.6456 10.7837 91.6284L9.80566 91.8369ZM9.81445 91.8779L8.83646 92.0866C8.8321 92.0661 8.82949 92.0502 8.82918 92.0484C8.82914 92.0481 8.82911 92.048 8.82914 92.0481C8.82915 92.0482 8.82924 92.0487 8.82933 92.0492C8.82949 92.0502 8.82994 92.0529 8.83052 92.0563C8.8311 92.0596 8.83204 92.065 8.83327 92.0716C8.83449 92.0781 8.83631 92.0875 8.83871 92.0987L9.81641 91.8887L10.7941 91.6786C10.7964 91.6892 10.7981 91.698 10.7992 91.7038C10.8003 91.7097 10.8011 91.7143 10.8015 91.7169C10.802 91.7195 10.8023 91.7214 10.8023 91.7216C10.8023 91.7217 10.8023 91.7218 10.8023 91.7214C10.8022 91.7211 10.8021 91.7205 10.802 91.7198C10.8011 91.7143 10.7978 91.6943 10.7924 91.6693L9.81445 91.8779ZM9.81641 91.8887L8.84125 92.1102C8.84599 92.131 8.85088 92.1495 8.85539 92.1652C8.8599 92.1809 8.86424 92.1946 8.86797 92.2058C8.87169 92.2169 8.87503 92.2263 8.87757 92.2333C8.88008 92.2401 8.88214 92.2455 8.88311 92.248C8.88358 92.2493 8.88398 92.2503 8.884 92.2504C8.88415 92.2507 8.8838 92.2499 8.88344 92.2489C8.88281 92.2473 8.88029 92.2407 8.87721 92.2322C8.87557 92.2277 8.87348 92.2218 8.87112 92.2149C8.86878 92.2081 8.86592 92.1995 8.86281 92.1895C8.85971 92.1796 8.85605 92.1674 8.85222 92.1532C8.84841 92.1392 8.84404 92.1219 8.83974 92.1019L9.81738 91.8916L10.795 91.6813C10.7907 91.6613 10.7863 91.6438 10.7825 91.6297C10.7786 91.6155 10.7749 91.6032 10.7718 91.5931C10.7687 91.5831 10.7658 91.5744 10.7634 91.5674C10.761 91.5605 10.7589 91.5545 10.7572 91.5499C10.7541 91.5412 10.7515 91.5344 10.7507 91.5325C10.7503 91.5314 10.7499 91.5304 10.75 91.5307C10.75 91.5307 10.7501 91.5308 10.7501 91.5308C10.7501 91.5309 10.7502 91.5311 10.7502 91.5312C10.7504 91.5315 10.7505 91.532 10.7508 91.5326C10.7517 91.5349 10.7536 91.5401 10.756 91.5466C10.7585 91.5533 10.7617 91.5624 10.7653 91.5733C10.769 91.5842 10.7732 91.5976 10.7776 91.613C10.7821 91.6284 10.7869 91.6466 10.7916 91.6671L9.81641 91.8887ZM9.81738 91.8916H8.81738V91.8926H9.81738H10.8174V91.8916H9.81738ZM9.81738 91.8926L8.83958 92.1021L8.85423 92.1705L9.83203 91.9609L10.8098 91.7514L10.7952 91.683L9.81738 91.8926ZM9.83203 91.9609L8.89687 92.3152L8.92129 92.3796L9.85645 92.0254L10.7916 91.6712L10.7672 91.6067L9.83203 91.9609ZM9.85645 92.0254L10.1995 92.9647L11.138 92.6219L10.7949 91.6826L10.4518 90.7433L9.51337 91.0861L9.85645 92.0254ZM10.7949 91.6826L10.451 90.7436L9.51251 91.0874L9.85645 92.0264L10.2004 92.9654L11.1389 92.6216L10.7949 91.6826ZM9.85645 92.0264H8.85645V92.0283H9.85645H10.8564V92.0264H9.85645ZM9.85645 92.0283L8.9183 92.3746C8.92165 92.3836 8.92454 92.3911 8.9265 92.396C8.9285 92.4011 8.93017 92.4052 8.93119 92.4077C8.93221 92.4102 8.93304 92.4122 8.93333 92.4129C8.93349 92.4133 8.93364 92.4137 8.93365 92.4137C8.93369 92.4138 8.93362 92.4136 8.93352 92.4134C8.93321 92.4126 8.93147 92.4084 8.92928 92.4029C8.92704 92.3973 8.92368 92.3888 8.9198 92.3782L9.8584 92.0332L10.797 91.6882C10.7928 91.6767 10.789 91.6672 10.7864 91.6607C10.7839 91.6543 10.7818 91.6492 10.7811 91.6476C10.7809 91.6471 10.7808 91.6468 10.7807 91.6467C10.7806 91.6465 10.7807 91.6466 10.7808 91.6468C10.7809 91.6471 10.7816 91.6488 10.7825 91.6509C10.7833 91.653 10.7849 91.6568 10.7867 91.6615C10.7886 91.6662 10.7913 91.6733 10.7946 91.6821L9.85645 92.0283ZM9.8584 92.0332L8.91993 92.3786C8.92225 92.3849 8.92429 92.3902 8.92583 92.3942C8.92738 92.3983 8.92871 92.4016 8.92963 92.404C8.93055 92.4063 8.93134 92.4083 8.93176 92.4093C8.93197 92.4099 8.93219 92.4104 8.93229 92.4107C8.93243 92.411 8.93249 92.4112 8.93254 92.4113C8.93286 92.4121 8.93033 92.4058 8.92714 92.3972L9.86523 92.0508L10.8033 91.7044C10.7973 91.6882 10.7922 91.6752 10.7901 91.6701C10.7899 91.6695 10.7897 91.6689 10.7895 91.6686C10.7894 91.6681 10.7893 91.668 10.7892 91.6679C10.7891 91.6675 10.7894 91.6682 10.7898 91.6693C10.7902 91.6704 10.7911 91.6726 10.7922 91.6754C10.7933 91.6783 10.7949 91.6826 10.7969 91.6878L9.8584 92.0332ZM9.86523 92.0508L8.92714 92.3972C8.93342 92.4142 8.94234 92.4382 8.9536 92.4684L9.89062 92.1191L10.8277 91.7699C10.8168 91.7406 10.8086 91.7187 10.8033 91.7044L9.86523 92.0508ZM9.89062 92.1191L8.9536 92.4684C8.97725 92.5319 9.01204 92.6231 9.05356 92.7323L9.98828 92.377L10.923 92.0216C10.8797 91.9076 10.8483 91.8254 10.8277 91.7699L9.89062 92.1191ZM9.98828 92.377L9.05356 92.7323C9.13937 92.958 9.26491 93.2861 9.42625 93.6918L10.3555 93.3223L11.2847 92.9527C11.1286 92.5602 11.007 92.2425 10.923 92.0216L9.98828 92.377ZM10.3555 93.3223L9.42625 93.6918C9.74758 94.4998 10.2094 95.6204 10.7709 96.8745L11.6836 96.4658L12.5963 96.0572C12.0487 94.8342 11.5979 93.7404 11.2847 92.9527L10.3555 93.3223ZM11.6836 96.4658L10.7709 96.8745C11.8766 99.3439 13.4357 102.478 15.1348 104.734L15.9336 104.133L16.7324 103.531C15.1756 101.464 13.6912 98.5024 12.5963 96.0571L11.6836 96.4658ZM15.9336 104.133L15.1334 104.733C16.3656 106.377 18.3501 108.217 20.2915 109.852L20.9355 109.087L21.5796 108.322C19.6544 106.701 17.8203 104.983 16.7338 103.533L15.9336 104.133ZM20.9355 109.087L20.2915 109.852C22.2657 111.514 24.3238 113.069 25.7938 114.146L26.3848 113.339L26.9757 112.532C25.5238 111.468 23.5056 109.944 21.5796 108.322L20.9355 109.087ZM26.3848 113.339L25.6777 114.046L25.6796 114.048L26.3867 113.341L27.0938 112.634L27.0919 112.632L26.3848 113.339ZM26.3867 113.341L25.7981 114.149C26.5362 114.687 26.9478 115.559 26.8916 116.45L27.8896 116.513L28.8877 116.576C28.9876 114.991 28.257 113.466 26.9753 112.532L26.3867 113.341ZM27.8896 116.513H26.8896V116.515H27.8896H28.8896V116.513H27.8896ZM27.8896 116.515L26.8915 116.453C26.6608 120.213 29.6481 123.382 33.4033 123.382L33.4033 122.382L33.4034 121.382C30.8002 121.382 28.7277 119.184 28.8878 116.576L27.8896 116.515ZM33.4033 122.382V123.382H55.7012V122.382V121.382H33.4033V122.382ZM55.7012 122.382L55.7012 123.382C68.5124 123.382 81.0145 127.367 91.4804 134.784L92.0586 133.968L92.6368 133.152C81.8334 125.496 68.9275 121.382 55.7012 121.382L55.7012 122.382ZM92.0586 133.968L91.4814 134.784L91.538 134.824L92.1152 134.008L92.6925 133.191L92.6358 133.151L92.0586 133.968ZM92.1152 134.008L91.6512 134.894L91.7128 134.926L92.1768 134.04L92.6408 133.154L92.5792 133.122L92.1152 134.008ZM92.1768 134.04L91.7167 134.928C100.031 139.237 108.774 142.659 117.811 145.134L118.075 144.17L118.339 143.205C109.438 140.767 100.827 137.396 92.6369 133.152L92.1768 134.04ZM118.075 144.17L117.811 145.134L127.704 147.844L127.968 146.88L128.232 145.915L118.339 143.205L118.075 144.17ZM127.968 146.88L127.71 147.846L127.754 147.858L128.012 146.892L128.269 145.925L128.225 145.914L127.968 146.88ZM128.012 146.892L127.844 147.877L127.89 147.885L128.058 146.899L128.225 145.914L128.18 145.906L128.012 146.892ZM128.058 146.899L127.61 147.794L127.612 147.795L128.06 146.9L128.507 146.006L128.505 146.005L128.058 146.899ZM128.06 146.9L127.886 147.885C127.897 147.887 127.906 147.889 127.912 147.889C127.918 147.89 127.924 147.891 127.927 147.892C127.93 147.892 127.932 147.892 127.933 147.892C127.934 147.892 127.934 147.893 127.934 147.893C127.934 147.893 127.934 147.893 127.934 147.893C127.934 147.892 127.929 147.892 127.923 147.891C127.918 147.89 127.909 147.889 127.898 147.887L128.066 146.901L128.235 145.916C128.223 145.914 128.213 145.912 128.205 145.911C128.198 145.91 128.193 145.909 128.191 145.909C128.19 145.909 128.19 145.909 128.19 145.909C128.19 145.909 128.19 145.909 128.19 145.909C128.191 145.909 128.192 145.909 128.195 145.91C128.198 145.91 128.202 145.911 128.208 145.911C128.214 145.912 128.223 145.914 128.234 145.916L128.06 146.9ZM128.066 146.901L127.893 147.886C127.888 147.885 127.886 147.885 127.886 147.885C127.888 147.885 127.887 147.885 127.891 147.886C127.897 147.887 127.907 147.889 127.919 147.891L128.093 146.906L128.266 145.921C128.267 145.922 128.267 145.922 128.264 145.921C128.263 145.921 128.259 145.92 128.256 145.92C128.253 145.919 128.247 145.918 128.24 145.917L128.066 146.901ZM128.093 146.906L127.92 147.891C127.942 147.895 127.986 147.903 128.023 147.909L128.194 146.924L128.366 145.939C128.314 145.93 128.29 145.926 128.266 145.921L128.093 146.906ZM128.194 146.924L128.023 147.909C128.114 147.925 128.248 147.948 128.419 147.977L128.587 146.991L128.755 146.005C128.584 145.976 128.453 145.954 128.366 145.939L128.194 146.924ZM128.587 146.991L128.419 147.977C128.764 148.036 129.267 148.12 129.901 148.223L130.062 147.236L130.222 146.249C129.593 146.147 129.095 146.063 128.755 146.005L128.587 146.991ZM130.062 147.236L129.901 148.223C131.169 148.43 132.965 148.713 135.082 149.016L135.224 148.026L135.365 147.036C133.264 146.736 131.481 146.454 130.222 146.249L130.062 147.236ZM135.224 148.026L135.082 149.016C139.307 149.621 144.839 150.314 149.999 150.65L150.064 149.652L150.129 148.654C145.043 148.323 139.568 147.638 135.365 147.036L135.224 148.026ZM150.064 149.652L149.999 150.65C160.254 151.318 174.937 150.961 180.523 150.184L180.385 149.193L180.247 148.203C174.84 148.955 160.302 149.317 150.129 148.654L150.064 149.652ZM180.385 149.193L180.832 150.088L180.834 150.087L180.387 149.192L179.94 148.298L179.938 148.299L180.385 149.193ZM180.387 149.192L180.527 150.183C186.025 149.406 189.095 148.61 194.375 147.414L194.154 146.438L193.933 145.463C188.617 146.667 185.643 147.44 180.247 148.202L180.387 149.192ZM194.154 146.438L194.375 147.414C197.071 146.803 201.095 145.769 204.421 144.894L204.167 143.927L203.913 142.96C200.585 143.835 196.592 144.861 193.933 145.463L194.154 146.438ZM204.167 143.927L204.421 144.894C206.089 144.455 207.59 144.054 208.675 143.763L208.415 142.797L208.156 141.831C207.074 142.122 205.576 142.522 203.913 142.96L204.167 143.927ZM208.415 142.797L208.675 143.763C209.215 143.617 209.654 143.5 209.958 143.417L209.696 142.452L209.435 141.487C209.134 141.568 208.697 141.686 208.156 141.831L208.415 142.797ZM209.696 142.452L209.958 143.417C210.108 143.377 210.23 143.343 210.307 143.322L210.045 142.357L209.783 141.392C209.701 141.415 209.586 141.446 209.435 141.487L209.696 142.452ZM210.045 142.357L210.307 143.322C210.346 143.312 210.377 143.303 210.397 143.298L210.135 142.333L209.872 141.368C209.852 141.374 209.822 141.382 209.783 141.392L210.045 142.357ZM210.135 142.333L210.397 143.298C210.415 143.293 210.429 143.289 210.436 143.287C210.438 143.286 210.439 143.286 210.44 143.286C210.441 143.285 210.44 143.286 210.44 143.286C210.439 143.286 210.438 143.286 210.436 143.287C210.433 143.288 210.429 143.289 210.424 143.29L210.158 142.326L209.892 141.362C209.886 141.364 209.88 141.366 209.877 141.367C209.873 141.368 209.87 141.369 209.868 141.369C209.865 141.37 209.864 141.371 209.863 141.371C209.861 141.371 209.861 141.371 209.861 141.371C209.859 141.372 209.865 141.37 209.872 141.368L210.135 142.333ZM210.158 142.326L210.421 143.291C210.387 143.3 210.358 143.306 210.338 143.31C210.317 143.314 210.3 143.316 210.292 143.317C210.288 143.317 210.285 143.318 210.285 143.318C210.284 143.318 210.287 143.318 210.291 143.317C210.294 143.317 210.303 143.316 210.313 143.314C210.323 143.313 210.34 143.31 210.361 143.306L210.164 142.325L209.967 141.345C209.988 141.341 210.004 141.338 210.014 141.337C210.024 141.335 210.032 141.334 210.035 141.334C210.038 141.333 210.041 141.333 210.039 141.333C210.039 141.333 210.035 141.334 210.031 141.334C210.022 141.335 210.004 141.338 209.982 141.342C209.96 141.346 209.93 141.352 209.896 141.361L210.158 142.326ZM210.164 142.325L210.611 143.22L210.613 143.219L210.166 142.324L209.719 141.43L209.717 141.431L210.164 142.325ZM210.166 142.324L210.422 143.291L210.47 143.278L210.214 142.312L209.957 141.345L209.91 141.358L210.166 142.324ZM210.214 142.312L210.582 143.241L210.629 143.223L210.261 142.293L209.893 141.363L209.846 141.382L210.214 142.312ZM210.261 142.293V143.293H210.263V142.293V141.293H210.261V142.293ZM210.263 142.293L210.62 143.227C210.613 143.23 210.607 143.232 210.601 143.234C210.596 143.236 210.592 143.237 210.588 143.239C210.581 143.241 210.576 143.243 210.573 143.244C210.569 143.245 210.567 143.246 210.566 143.246C210.566 143.246 210.566 143.246 210.566 143.246C210.566 143.246 210.566 143.246 210.566 143.246C210.566 143.246 210.567 143.246 210.567 143.246C210.568 143.245 210.574 143.243 210.582 143.241C210.59 143.238 210.602 143.234 210.616 143.229L210.269 142.291L209.921 141.353C209.934 141.348 209.945 141.345 209.952 141.343C209.958 141.34 209.963 141.339 209.964 141.339C209.964 141.339 209.964 141.339 209.964 141.339C209.964 141.339 209.963 141.339 209.963 141.339C209.961 141.339 209.959 141.34 209.955 141.341C209.952 141.343 209.946 141.345 209.938 141.347C209.934 141.348 209.93 141.35 209.924 141.352C209.919 141.354 209.913 141.356 209.905 141.359L210.263 142.293ZM210.269 142.291L210.626 143.225C210.634 143.222 210.641 143.219 210.646 143.217C210.65 143.215 210.654 143.214 210.657 143.212C210.66 143.211 210.662 143.21 210.663 143.21C210.666 143.209 210.665 143.209 210.666 143.209C210.667 143.208 210.66 143.211 210.65 143.215L210.29 142.282L209.93 141.349C209.911 141.357 209.896 141.363 209.89 141.366C209.889 141.366 209.888 141.366 209.888 141.366C209.887 141.367 209.887 141.367 209.887 141.367C209.886 141.367 209.887 141.367 209.888 141.366C209.889 141.366 209.892 141.365 209.895 141.363C209.899 141.362 209.904 141.36 209.911 141.357L210.269 142.291ZM210.29 142.282L210.648 143.216C210.664 143.21 210.708 143.193 210.735 143.182L210.376 142.249L210.017 141.316C209.97 141.334 209.954 141.34 209.932 141.349L210.29 142.282ZM210.376 142.249L210.735 143.182C210.807 143.155 210.922 143.111 211.065 143.055L210.703 142.123L210.342 141.191C210.201 141.245 210.095 141.286 210.017 141.316L210.376 142.249ZM210.703 142.123L211.065 143.055C211.35 142.945 211.764 142.784 212.279 142.581L211.913 141.65L211.547 140.72C211.036 140.921 210.625 141.081 210.342 141.191L210.703 142.123ZM211.913 141.65L212.279 142.581C213.31 142.175 214.749 141.601 216.377 140.933L215.997 140.008L215.617 139.083C214 139.747 212.57 140.317 211.547 140.72L211.913 141.65ZM215.997 140.008L216.377 140.933C219.621 139.601 223.671 137.869 226.771 136.314L226.322 135.42L225.874 134.526C222.845 136.046 218.852 137.755 215.617 139.083L215.997 140.008ZM226.322 135.42L226.769 136.314L226.773 136.312L226.326 135.418L225.879 134.524L225.875 134.525L226.322 135.42ZM226.326 135.418L226.778 136.31C230.176 134.587 237.424 130.819 243.13 127.829L242.666 126.943L242.202 126.058C236.495 129.047 229.258 132.81 225.874 134.526L226.326 135.418ZM242.666 126.943L241.959 127.65L241.96 127.651L242.667 126.944L243.374 126.237L243.373 126.236L242.666 126.943ZM242.667 126.944L243.13 127.831C248.142 125.21 253.692 123.844 259.335 123.844L259.335 122.844L259.335 121.844C253.368 121.844 247.5 123.289 242.204 126.058L242.667 126.944ZM259.335 122.844V123.844H288.692V122.844V121.844H259.335V122.844ZM288.692 122.844L288.692 123.844C292.862 123.843 296.308 120.572 296.537 116.404L295.538 116.35L294.54 116.295C294.369 119.405 291.796 121.844 288.692 121.844L288.692 122.844ZM295.538 116.35H296.538V116.347H295.538H294.538V116.35H295.538ZM295.538 116.347L296.537 116.399C296.596 115.263 297.16 114.21 298.077 113.517L297.475 112.719L296.872 111.921C295.491 112.964 294.63 114.559 294.539 116.295L295.538 116.347ZM297.475 112.719L298.182 112.012L298.181 112.011L297.474 112.718L296.767 113.425L296.768 113.426L297.475 112.719ZM297.474 112.718L298.072 113.519L301.664 110.833L301.065 110.032L300.467 109.231L296.875 111.917L297.474 112.718ZM301.065 110.032L301.773 110.739L301.774 110.737L301.067 110.03L300.36 109.323L300.358 109.325L301.065 110.032ZM301.067 110.03L301.668 110.83C302.812 109.97 303.837 108.984 304.74 107.876L303.965 107.244L303.19 106.613C302.389 107.596 301.481 108.468 300.467 109.231L301.067 110.03ZM303.965 107.244L304.672 107.951L304.673 107.95L303.966 107.243L303.259 106.536L303.258 106.537L303.965 107.244ZM303.966 107.243L304.741 107.874L306.554 105.647L305.778 105.016L305.003 104.384L303.19 106.612L303.966 107.243ZM305.778 105.016L306.554 105.647C308.598 103.133 310.323 100.391 311.721 97.4851L310.819 97.0518L309.918 96.6184C308.586 99.3876 306.945 101.997 305.003 104.385L305.778 105.016ZM310.819 97.0518L311.526 97.7589L311.527 97.7579L310.82 97.0508L310.113 96.3437L310.112 96.3447L310.819 97.0518ZM310.82 97.0508L311.722 97.4824C313.817 93.105 315.122 88.3813 315.584 83.5444L314.589 83.4492L313.593 83.354C313.153 87.9594 311.911 92.4551 309.918 96.6192L310.82 97.0508ZM314.589 83.4492H315.589V83.4482H314.589H313.589V83.4492H314.589ZM314.589 83.4482L315.584 83.5419L315.814 81.1035L314.818 81.0098L313.823 80.9161L313.593 83.3545L314.589 83.4482ZM314.818 81.0098L315.713 81.457L315.714 81.455L314.819 81.0078L313.925 80.5606L313.924 80.5626L314.818 81.0098ZM314.819 81.0078L315.815 81.1002C316.151 77.4798 316.025 73.8413 315.458 70.259L314.471 70.415L313.483 70.5711C314.024 73.9924 314.144 77.4641 313.824 80.9154L314.819 81.0078ZM314.471 70.415H315.471V70.4131H314.471H313.471V70.415H314.471ZM314.471 70.4131L315.457 70.2457L315.322 69.4518L314.336 69.6191L313.35 69.7865L313.485 70.5804L314.471 70.4131ZM314.336 69.6191L315.32 69.4427C314.641 65.6555 313.458 61.9868 311.799 58.5151L310.896 58.9463L309.994 59.3775C311.576 62.6881 312.705 66.1854 313.352 69.7956L314.336 69.6191ZM310.896 58.9463L311.795 58.5064L311.44 57.7827L310.542 58.2227L309.644 58.6626L309.998 59.3862L310.896 58.9463ZM310.542 58.2227L311.437 57.7762L309.896 54.6874L309.001 55.1338L308.106 55.5802L309.647 58.6691L310.542 58.2227ZM309.001 55.1338L309.708 54.4267L309.707 54.4257L309 55.1328L308.293 55.8399L308.294 55.8409L309.001 55.1338ZM309 55.1328L309.889 54.6742L309.622 54.1576L308.733 54.6162L307.845 55.0748L308.111 55.5914L309 55.1328ZM308.733 54.6162L309.617 54.1471C308.199 51.4772 306.317 49.0911 304.054 47.0889L303.392 47.8379L302.729 48.5868C304.813 50.4305 306.545 52.6272 307.85 55.0853L308.733 54.6162ZM303.392 47.8379L304.054 47.0885L297.288 41.1109L296.626 41.8604L295.964 42.6098L302.729 48.5873L303.392 47.8379ZM296.626 41.8604V42.8604H296.627V41.8604V40.8604H296.626V41.8604ZM296.627 41.8604L297.293 41.1141C296.652 40.5429 296.314 39.7209 296.365 38.8878L295.367 38.8262L294.369 38.7646C294.279 40.2191 294.87 41.6336 295.961 42.6067L296.627 41.8604ZM295.367 38.8262L296.365 38.8888C296.607 35.0315 293.543 31.7568 289.673 31.7568V32.7568V33.7568C292.386 33.7568 294.539 36.0545 294.369 38.7635L295.367 38.8262ZM289.673 32.7568V31.7568H286.507V32.7568V33.7568H289.673V32.7568ZM286.507 32.7568L286.574 31.7591L274.688 30.9583L274.621 31.9561L274.554 32.9538L286.44 33.7546L286.507 32.7568ZM274.621 31.9561L274.688 30.9583C255.484 29.6778 237.372 22.6819 219.102 15.4328L218.733 16.3623L218.365 17.2918C236.597 24.5261 254.99 31.6494 274.555 32.9538L274.621 31.9561ZM218.733 16.3623V17.3623H218.734V16.3623V15.3623H218.733V16.3623ZM218.734 16.3623L219.104 15.4332C211.385 12.3613 206.866 10.8751 198.75 8.95366L198.52 9.92676L198.289 10.8999C206.299 12.7962 210.725 14.2513 218.365 17.2914L218.734 16.3623ZM198.52 9.92676V8.92676H198.519V9.92676V10.9268H198.52V9.92676ZM198.519 9.92676L198.748 8.95338C190.594 7.03313 181.6 5.84669 170.561 5.2602L170.508 6.25879L170.455 7.25738C181.408 7.83934 190.279 9.01383 198.289 10.9001L198.519 9.92676Z" fill="#67161F"/>
</svg>
