<svg width="324" height="158" viewBox="0 0 324 158" fill="none" xmlns="http://www.w3.org/2000/svg">
<path d="M48.6886 33.9946L37.72 34.7512H35.2331C32.0382 34.7512 29.4023 37.2657 29.2343 40.4736C29.1364 42.3439 28.1811 44.0628 26.648 45.1268L24.0826 46.9072C23.4734 47.3299 22.9033 47.807 22.379 48.3325L21.1229 49.5916C18.8601 51.8601 16.9476 54.4562 15.4491 57.2938L13.6165 60.7638C13.6165 60.7638 11.2005 66.1884 10.4331 69.8817C9.66566 73.575 10.082 81.8732 10.4331 84.9264C10.7841 87.9796 11.7975 92.6767 11.7975 92.6767C11.7975 92.6767 14.6088 100.392 17.7096 104.53C19.8786 107.425 25.0218 111.401 27.9167 113.529C29.1937 114.467 29.9287 115.987 29.8307 117.574C29.6698 120.181 31.729 122.384 34.3264 122.384H56.5529C69.7394 122.384 82.6014 126.495 93.3671 134.151C101.531 138.395 110.115 141.764 118.979 144.203L128.84 146.916C128.84 146.916 140.534 148.986 150.669 149.652C160.805 150.317 175.304 149.955 180.685 149.196C186.065 148.437 189.028 147.662 194.328 146.461C199.628 145.26 210.246 142.358 210.246 142.358C210.246 142.358 220.123 138.569 226.163 135.519C229.543 133.812 236.752 130.044 242.445 127.057C247.716 124.291 253.572 122.84 259.518 122.84H288.773C291.872 122.84 294.43 120.406 294.601 117.295C294.696 115.562 295.55 113.959 296.933 112.92L300.509 110.231C301.518 109.472 302.43 108.593 303.225 107.612L305.036 105.377C306.965 102.997 308.611 100.387 309.932 97.6191C311.919 93.454 313.162 88.9547 313.592 84.3555L313.821 81.9158C314.143 78.4659 314.03 74.9874 313.485 71.566C312.824 67.4294 311.537 63.4171 309.669 59.6721L308.126 56.5792C306.801 53.9228 304.981 51.5472 302.764 49.5816L296.02 43.6001C294.932 42.6359 294.35 41.2207 294.439 39.7658C294.608 37.0484 292.461 34.7512 289.754 34.7512H286.566L274.687 33.9529C255.185 32.6423 236.855 25.5217 218.683 18.2849C211.062 15.2499 206.654 13.7919 198.672 11.9023C190.692 10.0128 181.843 8.83434 170.931 8.25516C160.02 7.67598 149.351 8.12627 140.915 9.16696C139.109 9.38984 137.096 9.70545 135.047 10.0638C124.673 11.8792 114.705 15.4543 105.099 19.793C87.2779 27.8418 68.1791 32.6501 48.6886 33.9946Z" stroke="#67161F" stroke-width="2"/>
<path d="M34.985 27.2798H29.8504C25.5016 27.2798 21.9761 30.8053 21.9761 35.1541C21.9761 37.738 20.7084 40.1575 18.584 41.6283L16.4305 43.1191C15.7955 43.5587 15.2014 44.0545 14.6553 44.6006L13.2269 46.029C10.7404 48.5156 8.63959 51.36 6.99426 54.4678L4.97613 58.2798C4.97613 58.2798 2.31985 64.2292 1.47613 68.2798C0.632411 72.3304 1.09021 81.4313 1.47613 84.7798C1.86206 88.1284 2.97613 93.2798 2.97613 93.2798C2.97613 93.2798 6.06706 101.742 9.47613 106.28C11.6744 109.206 16.651 113.14 19.9088 115.566C21.8107 116.982 22.9761 119.196 22.9761 121.567C22.9761 125.55 26.2056 128.78 30.1893 128.78H49.3849C62.8894 128.78 76.1711 132.221 87.9761 138.78C96.9512 143.434 106.391 147.129 116.141 149.805L126.976 152.78C126.976 152.78 139.833 155.05 150.976 155.78C162.119 156.509 178.061 156.112 183.976 155.28C189.892 154.448 193.149 153.597 198.976 152.28C204.803 150.963 216.476 147.78 216.476 147.78C216.476 147.78 227.336 143.625 233.976 140.28C236.564 138.976 239.944 137.019 243.106 135.114C249.279 131.396 256.309 129.28 263.516 129.28H292.976C297.394 129.28 300.976 125.698 300.976 121.28C300.976 118.762 302.162 116.391 304.176 114.88L307.396 112.465C308.445 111.678 309.395 110.765 310.222 109.746L312.286 107.206C314.405 104.598 316.215 101.735 317.665 98.7026C319.849 94.1367 321.218 89.2008 321.69 84.1617L321.942 81.476C322.297 77.6937 322.171 73.8748 321.571 70.1236C320.846 65.5933 319.432 61.1919 317.38 57.0883L315.811 53.9497C314.269 50.8652 312.149 48.1055 309.566 45.8205L302.919 39.9406C301.366 38.5666 300.476 36.5924 300.476 34.5187C300.476 30.5208 297.235 27.2798 293.237 27.2798H285.641C264.23 27.2798 243.875 20.1849 223.976 12.2798C215.597 8.9512 210.751 7.35213 201.976 5.27984C193.202 3.20755 183.472 1.91504 171.476 1.27984C159.48 0.644642 147.75 1.13848 138.476 2.27984C135.914 2.59516 132.974 3.07971 130.06 3.61592C119.977 5.47152 110.27 8.90009 100.923 13.1115C80.1949 22.4505 57.7196 27.2798 34.985 27.2798Z" stroke="#67161F" stroke-width="2"/>
</svg>
