<svg width="28" height="20" viewBox="0 0 28 20" fill="none" xmlns="http://www.w3.org/2000/svg">
<path d="M26.887 1.12C19.6336 4.32 15.2603 8.53333 13.767 13.76C14.727 11.4133 16.1136 10.24 17.927 10.24C19.6336 10.24 20.5403 11.2 20.647 13.12C20.647 14.72 20.007 16.2667 18.727 17.76C17.447 19.1467 16.1136 19.84 14.727 19.84C12.487 19.84 11.4203 18.56 11.527 16C11.6336 12.5867 13.5536 9.17334 17.287 5.76C20.3803 2.98667 23.527 1.06667 26.727 0C27.2603 0 27.527 0.160001 27.527 0.480003C27.4203 0.800002 27.207 1.01333 26.887 1.12ZM15.367 1.12C8.11362 4.32 3.74029 8.53333 2.24696 13.76C3.20696 11.4133 4.64696 10.24 6.56696 10.24C8.27362 10.24 9.12696 11.2 9.12696 13.12C9.12696 14.72 8.48696 16.2667 7.20696 17.76C5.92696 19.1467 4.64696 19.84 3.36696 19.84C1.02029 19.84 -0.0997103 18.56 0.00695655 16C0.113623 12.5867 2.03362 9.17334 5.76696 5.76C8.86029 2.98667 12.007 1.06667 15.207 0C15.7403 0 16.007 0.160001 16.007 0.480003C15.9003 0.800002 15.687 1.01333 15.367 1.12Z" fill="#262626"/>
</svg>
