<svg width="100" height="100" viewBox="0 0 100 100" fill="none" xmlns="http://www.w3.org/2000/svg">
<path d="M50 0C77.6142 0 100 22.3858 100 50C100 77.6142 77.6142 100 50 100C22.3858 100 0 77.6142 0 50C0 22.3858 22.3858 0 50 0ZM50 54.25C40.6075 54.25 33 58.0538 33 62.75V67H67V62.75C67 58.0538 59.3925 54.25 50 54.25ZM50 33C47.7457 33 45.5833 33.8952 43.9893 35.4893C42.3952 37.0833 41.5 39.2457 41.5 41.5C41.5 43.7543 42.3952 45.9167 43.9893 47.5107C45.5833 49.1048 47.7457 50 50 50C52.2543 50 54.4167 49.1048 56.0107 47.5107C57.6048 45.9167 58.5 43.7543 58.5 41.5C58.5 39.2457 57.6048 37.0833 56.0107 35.4893C54.4167 33.8952 52.2543 33 50 33Z" fill="#67161F"/>
</svg>
