<svg width="15" height="11" viewBox="0 0 15 11" fill="none" xmlns="http://www.w3.org/2000/svg">
<path d="M14.2495 8.88068e-07L0.749166 -2.92173e-07C0.61248 0.000419313 0.478501 0.0373446 0.361648 0.106801C0.244794 0.176257 0.149492 0.275612 0.0860004 0.394174C0.0225086 0.512737 -0.00676923 0.646016 0.00131792 0.779665C0.00940506 0.913314 0.054551 1.04227 0.131898 1.15266L6.88209 10.703C7.16185 11.099 7.83537 11.099 8.11587 10.703L14.8661 1.15266C14.9442 1.0425 14.99 0.91348 14.9985 0.779609C15.0071 0.645738 14.978 0.512137 14.9144 0.393324C14.8509 0.27451 14.7553 0.175028 14.6381 0.105684C14.5209 0.0363407 14.3865 -0.000210816 14.2495 8.88068e-07Z" fill="#262626"/>
</svg>
